<svg width="16" height="17" viewBox="0 0 16 17" fill="none" xmlns="http://www.w3.org/2000/svg">
<g clip-path="url(#clip0_805_5341)">
<path d="M12.6667 7.83325H3.33333C2.59695 7.83325 2 8.43021 2 9.16659V13.8333C2 14.5696 2.59695 15.1666 3.33333 15.1666H12.6667C13.403 15.1666 14 14.5696 14 13.8333V9.16659C14 8.43021 13.403 7.83325 12.6667 7.83325Z" stroke="#808080" stroke-width="2" stroke-linecap="round" stroke-linejoin="round"/>
<path d="M4.6665 7.83325V5.16659C4.6665 4.28253 5.01769 3.43468 5.64281 2.80956C6.26794 2.18444 7.11578 1.83325 7.99984 1.83325C8.88389 1.83325 9.73174 2.18444 10.3569 2.80956C10.982 3.43468 11.3332 4.28253 11.3332 5.16659V7.83325" stroke="#808080" stroke-width="2" stroke-linecap="round" stroke-linejoin="round"/>
</g>
<defs>
<clipPath id="clip0_805_5341">
<rect width="16" height="16" fill="white" transform="translate(0 0.5)"/>
</clipPath>
</defs>
</svg>
