<svg width="500" height="500" viewBox="0 0 500 500" fill="none" xmlns="http://www.w3.org/2000/svg">
<path d="M213.68 321.72L212.76 327.35L211.78 333.4L202.78 388.57H188.07L197.06 333.4L198.05 327.35L198.97 321.72H213.68Z" fill="#EBEBEB"/>
<path d="M211.55 321.72C210.77 327.31 209.94 332.89 209.1 338.46L206.5 355.19L203.78 371.89L202.38 380.23L200.92 388.57L202.12 380.19L203.37 371.82L206 355.1L208.72 338.4C209.61 332.83 210.55 327.27 211.55 321.72Z" fill="#C7C7C7"/>
<path d="M212.76 327.35L211.78 333.4H197.06L198.05 327.35H212.76Z" fill="#C7C7C7"/>
<path d="M286.32 321.72L287.24 327.35L288.22 333.4L297.22 388.57H311.93L302.94 333.4L301.95 327.35L301.03 321.72H286.32Z" fill="#EBEBEB"/>
<path d="M288.5 321.72C289.27 327.31 290.11 332.89 290.95 338.46L293.54 355.19L296.26 371.89L297.67 380.23L299.13 388.57L297.93 380.19L296.68 371.82L294.08 355.1L291.36 338.4C290.43 332.83 289.49 327.27 288.5 321.72Z" fill="#C7C7C7"/>
<path d="M287.24 327.35H301.95L302.94 333.4H288.22L287.24 327.35Z" fill="#C7C7C7"/>
<path d="M213.14 306.2H201.48L202.93 295.32H211.69L213.14 306.2Z" fill="#C7C7C7"/>
<path d="M218.022 289.457C219.066 283.545 215.119 277.907 209.207 276.863C203.295 275.82 197.657 279.766 196.613 285.678C195.57 291.59 199.516 297.229 205.428 298.272C211.34 299.316 216.979 295.369 218.022 289.457Z" fill="#DBDBDB"/>
<path d="M215.358 289.46C216.411 285.015 213.661 280.559 209.217 279.506C204.773 278.453 200.316 281.202 199.263 285.646C198.21 290.091 200.959 294.547 205.404 295.6C209.848 296.653 214.305 293.904 215.358 289.46Z" fill="white"/>
<path d="M214.22 287.07C214.143 286.085 213.864 285.126 213.399 284.253C212.935 283.381 212.295 282.614 211.52 282C210.74 281.394 209.845 280.953 208.889 280.704C207.933 280.455 206.937 280.403 205.96 280.55C204.991 280.703 204.064 281.058 203.241 281.592C202.417 282.126 201.715 282.827 201.18 283.65C200.616 284.53 200.246 285.521 200.096 286.556C199.946 287.591 200.019 288.646 200.31 289.65C200.807 291.385 201.968 292.855 203.54 293.74C205.074 294.611 206.875 294.889 208.6 294.52C210.269 294.163 211.765 293.246 212.84 291.92C213.902 290.61 214.515 288.994 214.59 287.31C214.59 287.24 214.59 287.17 214.52 287.17C214.45 287.17 214.45 287.23 214.45 287.31C214.412 287.991 214.281 288.664 214.06 289.31C213.83 289.944 213.524 290.549 213.15 291.11C212.756 291.655 212.3 292.151 211.79 292.59C211.267 293.027 210.693 293.4 210.08 293.7C209.2 294.115 208.243 294.342 207.27 294.366C206.297 294.39 205.33 294.211 204.43 293.84C203.528 293.458 202.719 292.884 202.06 292.159C201.4 291.434 200.906 290.575 200.61 289.64C200.307 288.68 200.214 287.666 200.338 286.667C200.463 285.667 200.801 284.707 201.33 283.85C201.842 283.037 202.521 282.344 203.324 281.816C204.126 281.288 205.032 280.938 205.98 280.79C207.262 280.587 208.575 280.733 209.781 281.213C210.986 281.694 212.04 282.491 212.83 283.52C213.211 284.051 213.52 284.629 213.75 285.24C213.973 285.86 214.121 286.505 214.19 287.16C214.19 287.16 214.22 287.1 214.22 287.07Z" fill="#EBEBEB"/>
<path d="M213.25 287.08C213.179 286.236 212.934 285.416 212.531 284.671C212.129 283.926 211.577 283.272 210.91 282.75C210.241 282.236 209.477 281.86 208.661 281.644C207.846 281.427 206.996 281.375 206.16 281.49C205.325 281.615 204.525 281.914 203.813 282.369C203.101 282.824 202.494 283.424 202.03 284.13C201.537 284.884 201.21 285.734 201.072 286.624C200.934 287.514 200.988 288.423 201.23 289.29C201.436 290.041 201.79 290.744 202.271 291.357C202.752 291.969 203.35 292.481 204.03 292.86C205.366 293.624 206.939 293.86 208.44 293.52C209.888 293.208 211.184 292.406 212.11 291.25C213.027 290.112 213.556 288.71 213.62 287.25C213.62 287.19 213.62 287.13 213.56 287.13C213.5 287.13 213.48 287.18 213.48 287.25C213.398 288.422 213.005 289.551 212.34 290.52C211.676 291.489 210.764 292.262 209.7 292.76C208.943 293.128 208.116 293.331 207.275 293.356C206.434 293.38 205.597 293.224 204.82 292.9C204.039 292.57 203.338 292.073 202.769 291.444C202.199 290.815 201.773 290.07 201.52 289.26C201.261 288.429 201.185 287.551 201.299 286.687C201.413 285.824 201.714 284.996 202.18 284.26C202.62 283.566 203.206 282.976 203.897 282.531C204.587 282.085 205.366 281.795 206.18 281.68C207.269 281.518 208.381 281.648 209.403 282.055C210.425 282.463 211.321 283.134 212 284C212.326 284.452 212.595 284.942 212.8 285.46C212.987 285.992 213.118 286.541 213.19 287.1L213.25 287.08Z" fill="#EBEBEB"/>
<path d="M212.28 287.09C212.208 286.387 211.994 285.707 211.65 285.089C211.306 284.472 210.84 283.931 210.28 283.5C209.156 282.645 207.741 282.265 206.34 282.44C205.639 282.533 204.965 282.773 204.363 283.146C203.761 283.518 203.246 284.014 202.85 284.6C202.422 285.234 202.135 285.952 202.009 286.706C201.883 287.46 201.921 288.232 202.12 288.97C202.288 289.614 202.585 290.217 202.992 290.743C203.399 291.269 203.909 291.707 204.49 292.03C205.636 292.671 206.98 292.864 208.26 292.57C209.494 292.284 210.59 291.576 211.36 290.57C212.122 289.605 212.569 288.428 212.64 287.2C212.64 287.14 212.64 287.09 212.57 287.09C212.558 287.092 212.547 287.095 212.536 287.101C212.526 287.107 212.517 287.114 212.509 287.124C212.502 287.133 212.496 287.144 212.493 287.155C212.49 287.166 212.489 287.178 212.49 287.19C212.412 288.174 212.078 289.121 211.52 289.935C210.962 290.749 210.2 291.403 209.31 291.83C208.673 292.145 207.976 292.321 207.265 292.345C206.555 292.369 205.847 292.241 205.19 291.97C204.526 291.696 203.931 291.277 203.448 290.744C202.966 290.212 202.608 289.578 202.4 288.89C202.193 288.19 202.139 287.453 202.243 286.73C202.346 286.007 202.605 285.315 203 284.7C203.377 284.128 203.874 283.645 204.456 283.282C205.037 282.92 205.69 282.687 206.37 282.6C207.269 282.494 208.18 282.601 209.03 282.91C209.886 283.235 210.637 283.788 211.2 284.51C211.479 284.879 211.707 285.282 211.88 285.71C212.048 286.149 212.165 286.605 212.23 287.07C212.23 287.07 212.29 287.1 212.28 287.09Z" fill="#EBEBEB"/>
<path d="M211.32 287.1C211.173 285.973 210.588 284.949 209.69 284.25C208.793 283.579 207.675 283.272 206.56 283.39C205.993 283.456 205.447 283.641 204.956 283.932C204.465 284.223 204.04 284.614 203.71 285.08C203.352 285.594 203.108 286.178 202.994 286.794C202.88 287.41 202.899 288.042 203.05 288.65C203.183 289.185 203.425 289.687 203.76 290.124C204.096 290.561 204.518 290.924 205 291.19C205.951 291.716 207.063 291.87 208.12 291.62C209.126 291.377 210.018 290.799 210.65 289.98C211.252 289.181 211.601 288.22 211.65 287.22C211.652 287.21 211.651 287.199 211.648 287.189C211.646 287.178 211.641 287.169 211.634 287.161C211.628 287.152 211.62 287.145 211.61 287.14C211.601 287.135 211.591 287.131 211.58 287.13C211.58 287.13 211.51 287.13 211.5 287.21C211.44 288.002 211.179 288.766 210.742 289.429C210.305 290.093 209.705 290.633 209 291C208.486 291.269 207.918 291.423 207.338 291.451C206.758 291.478 206.178 291.379 205.64 291.16C205.095 290.935 204.607 290.59 204.214 290.15C203.821 289.711 203.533 289.187 203.37 288.62C203.21 288.051 203.176 287.454 203.269 286.871C203.362 286.287 203.581 285.731 203.91 285.24C204.22 284.789 204.623 284.409 205.092 284.128C205.562 283.847 206.086 283.67 206.63 283.61C207.342 283.546 208.058 283.638 208.73 283.88C209.406 284.13 210.003 284.554 210.46 285.11C210.68 285.404 210.865 285.723 211.01 286.06C211.152 286.411 211.256 286.777 211.32 287.15V287.1Z" fill="#EBEBEB"/>
<path d="M298.27 306.2H286.6L288.05 295.32H296.82L298.27 306.2Z" fill="#C7C7C7"/>
<path d="M303.362 288.508C304.263 282.564 300.175 277.016 294.231 276.116C288.288 275.215 282.74 279.303 281.839 285.247C280.939 291.19 285.027 296.738 290.97 297.638C296.914 298.539 302.462 294.451 303.362 288.508Z" fill="#DBDBDB"/>
<path d="M300.603 288.795C301.292 284.28 298.189 280.061 293.674 279.373C289.159 278.684 284.941 281.786 284.252 286.302C283.564 290.817 286.666 295.035 291.181 295.724C295.696 296.412 299.915 293.31 300.603 288.795Z" fill="white"/>
<path d="M299.35 287.07C299.271 286.085 298.991 285.127 298.527 284.255C298.062 283.382 297.423 282.615 296.65 282C295.869 281.395 294.974 280.954 294.019 280.705C293.063 280.456 292.067 280.403 291.09 280.55C290.12 280.703 289.194 281.058 288.37 281.592C287.547 282.126 286.845 282.827 286.31 283.65C285.741 284.528 285.369 285.519 285.219 286.555C285.069 287.591 285.144 288.646 285.44 289.65C285.933 291.387 287.094 292.858 288.67 293.74C290.204 294.612 292.005 294.89 293.73 294.52C295.399 294.163 296.895 293.246 297.97 291.92C299.031 290.61 299.645 288.994 299.72 287.31C299.72 287.24 299.72 287.17 299.65 287.17C299.58 287.17 299.58 287.23 299.57 287.31C299.53 287.99 299.403 288.663 299.19 289.31C298.961 289.947 298.652 290.551 298.27 291.11C297.488 292.224 296.43 293.117 295.2 293.7C294.322 294.118 293.367 294.346 292.395 294.37C291.423 294.394 290.457 294.214 289.56 293.84C288.656 293.458 287.846 292.885 287.184 292.16C286.523 291.435 286.027 290.575 285.73 289.64C285.428 288.679 285.337 287.665 285.463 286.665C285.589 285.666 285.929 284.706 286.46 283.85C286.971 283.037 287.651 282.344 288.453 281.816C289.255 281.288 290.161 280.938 291.11 280.79C292.392 280.586 293.705 280.733 294.91 281.213C296.116 281.694 297.17 282.491 297.96 283.52C298.337 284.053 298.646 284.631 298.88 285.24C299.1 285.861 299.244 286.505 299.31 287.16C299.31 287.16 299.35 287.1 299.35 287.07Z" fill="#EBEBEB"/>
<path d="M298.38 287.08C298.304 286.237 298.057 285.419 297.655 284.675C297.253 283.93 296.703 283.276 296.04 282.75C295.371 282.236 294.607 281.86 293.792 281.644C292.976 281.427 292.126 281.375 291.29 281.49C290.453 281.613 289.651 281.912 288.938 282.367C288.224 282.822 287.615 283.423 287.15 284.13C286.657 284.884 286.33 285.734 286.192 286.624C286.054 287.514 286.108 288.423 286.35 289.29C286.557 290.041 286.911 290.744 287.391 291.357C287.872 291.969 288.47 292.481 289.15 292.86C290.486 293.622 292.059 293.858 293.56 293.52C295.012 293.21 296.312 292.408 297.24 291.25C298.153 290.11 298.682 288.709 298.75 287.25C298.75 287.19 298.75 287.13 298.68 287.13C298.61 287.13 298.61 287.18 298.6 287.25C298.52 288.421 298.129 289.55 297.466 290.519C296.803 291.488 295.893 292.262 294.83 292.76C294.073 293.128 293.247 293.331 292.405 293.356C291.564 293.38 290.727 293.224 289.95 292.9C289.166 292.571 288.464 292.075 287.892 291.446C287.321 290.818 286.893 290.071 286.64 289.26C286.384 288.428 286.31 287.551 286.424 286.688C286.538 285.825 286.837 284.997 287.3 284.26C287.743 283.568 288.329 282.979 289.019 282.534C289.709 282.089 290.487 281.798 291.3 281.68C292.392 281.514 293.508 281.641 294.535 282.048C295.561 282.456 296.46 283.13 297.14 284C297.47 284.449 297.739 284.94 297.94 285.46C298.137 285.989 298.268 286.54 298.33 287.1C298.339 287.1 298.349 287.099 298.357 287.095C298.366 287.092 298.374 287.087 298.38 287.08Z" fill="#EBEBEB"/>
<path d="M297.41 287.09C297.334 286.388 297.117 285.709 296.774 285.092C296.43 284.476 295.967 283.934 295.41 283.5C294.285 282.647 292.872 282.267 291.47 282.44C290.772 282.535 290.102 282.777 289.504 283.149C288.906 283.521 288.394 284.016 288 284.6C287.573 285.234 287.286 285.951 287.158 286.705C287.031 287.459 287.066 288.231 287.26 288.97C287.433 289.613 287.733 290.215 288.142 290.74C288.55 291.265 289.06 291.704 289.64 292.03C290.783 292.67 292.123 292.863 293.4 292.57C294.637 292.283 295.736 291.576 296.51 290.57C297.274 289.606 297.718 288.428 297.78 287.2C297.78 287.14 297.78 287.09 297.72 287.09C297.708 287.091 297.697 287.095 297.686 287.1C297.676 287.106 297.667 287.114 297.659 287.123C297.652 287.133 297.646 287.143 297.643 287.155C297.64 287.166 297.639 287.178 297.64 287.19C297.561 288.173 297.225 289.119 296.668 289.933C296.11 290.747 295.349 291.401 294.46 291.83C293.823 292.145 293.126 292.32 292.415 292.344C291.705 292.368 290.997 292.241 290.34 291.97C289.676 291.695 289.081 291.277 288.599 290.744C288.116 290.211 287.758 289.578 287.55 288.89C287.343 288.189 287.29 287.453 287.393 286.729C287.497 286.006 287.755 285.314 288.15 284.7C288.525 284.127 289.019 283.643 289.599 283.28C290.179 282.918 290.831 282.686 291.51 282.6C292.412 282.493 293.327 282.599 294.18 282.91C295.036 283.235 295.787 283.788 296.35 284.51C296.629 284.878 296.857 285.282 297.03 285.71C297.189 286.151 297.306 286.607 297.38 287.07C297.388 287.08 297.398 287.087 297.41 287.09Z" fill="#EBEBEB"/>
<path d="M296.44 287.1C296.371 286.542 296.193 286.003 295.915 285.514C295.637 285.025 295.265 284.595 294.82 284.25C293.922 283.58 292.805 283.273 291.69 283.39C291.122 283.452 290.574 283.635 290.082 283.926C289.59 284.218 289.167 284.611 288.84 285.08C288.482 285.594 288.238 286.178 288.124 286.794C288.01 287.41 288.029 288.043 288.18 288.65C288.313 289.185 288.554 289.687 288.89 290.124C289.226 290.561 289.648 290.924 290.13 291.19C291.077 291.716 292.186 291.869 293.24 291.62C294.247 291.375 295.142 290.797 295.78 289.98C296.382 289.181 296.731 288.22 296.78 287.22C296.783 287.21 296.784 287.2 296.783 287.19C296.781 287.18 296.777 287.17 296.772 287.161C296.766 287.153 296.758 287.145 296.749 287.14C296.74 287.135 296.731 287.131 296.72 287.13C296.699 287.13 296.679 287.139 296.664 287.154C296.649 287.169 296.64 287.189 296.64 287.21C296.567 288.007 296.291 288.771 295.837 289.429C295.384 290.088 294.768 290.618 294.05 290.97C293.537 291.238 292.971 291.391 292.393 291.418C291.814 291.446 291.237 291.348 290.7 291.13C290.155 290.906 289.667 290.56 289.274 290.121C288.881 289.681 288.593 289.158 288.43 288.59C288.27 288.021 288.235 287.425 288.329 286.841C288.422 286.257 288.641 285.701 288.97 285.21C289.279 284.758 289.682 284.379 290.152 284.097C290.621 283.816 291.146 283.639 291.69 283.58C292.398 283.516 293.112 283.608 293.78 283.85C294.457 284.097 295.055 284.522 295.51 285.08C295.737 285.372 295.925 285.691 296.07 286.03C296.212 286.382 296.316 286.747 296.38 287.12C296.38 287.12 296.45 287.11 296.44 287.1Z" fill="#EBEBEB"/>
<path d="M323.3 300.66H176.69V328.7H323.3V300.66Z" fill="#DBDBDB"/>
<path d="M206.83 300.66L196.19 328.7H177.25L187.89 300.66H206.83Z" fill="#EBEBEB"/>
<path d="M245.64 300.66L235 328.7H216.06L226.7 300.66H245.64Z" fill="#EBEBEB"/>
<path d="M284.44 300.66L273.81 328.7H254.87L265.51 300.66H284.44Z" fill="#EBEBEB"/>
<path d="M323.26 300.66L312.62 328.7H293.68L304.32 300.66H323.26Z" fill="#EBEBEB"/>
<path d="M320.34 354.63H179.66V372.38H320.34V354.63Z" fill="#DBDBDB"/>
<path d="M208.57 354.63L198.37 372.37H180.2L190.41 354.63H208.57Z" fill="#EBEBEB"/>
<path d="M245.82 354.63L235.61 372.37H217.43L227.64 354.63H245.82Z" fill="#EBEBEB"/>
<path d="M283.05 354.63L272.84 372.37H254.67L264.88 354.63H283.05Z" fill="#EBEBEB"/>
<path d="M320.29 354.63L310.08 372.37H291.91L302.12 354.63H320.29Z" fill="#EBEBEB"/>
<path d="M467.8 167.11H354.62C354.62 167.11 365.84 136.46 383.11 136.46C400.38 136.46 405.79 157.61 405.79 157.61C405.79 157.61 417.44 146.12 427.02 146.12C436.6 146.12 444.91 161.31 444.91 161.31C444.91 161.31 458.44 153.14 467.8 167.11Z" fill="#EBEBEB"/>
<path d="M164.47 95.2201H111.58C111.58 95.2201 123.39 78.1001 132.71 78.1001C142.03 78.1001 144.77 89.5101 144.77 89.5101C144.77 89.5101 151.34 84.1901 157.43 85.1401C163.52 86.0901 164.47 95.2201 164.47 95.2201Z" fill="#EBEBEB"/>
<path d="M449.78 218.51H396.89C396.89 218.51 408.71 201.39 418.02 201.39C427.33 201.39 430.08 212.8 430.08 212.8C430.08 212.8 436.65 207.47 442.74 208.43C448.83 209.39 449.78 218.51 449.78 218.51Z" fill="#EBEBEB"/>
<path d="M135.23 138.13H32.2002C32.2002 138.13 46.3102 106.63 61.4002 104.66C76.4902 102.69 83.7102 128.06 83.7102 128.06C83.7102 128.06 93.4502 119.06 101.1 119.06C108.75 119.06 114.66 130.87 114.66 130.87C114.66 130.87 130 122.81 135.23 138.13Z" fill="#EBEBEB"/>
<path d="M35.9102 388.82L88.9302 388.58L141.96 388.49L248 388.32L354.05 388.49L407.07 388.58L460.09 388.82L407.07 389.06L354.05 389.15L248 389.32L141.96 389.15L88.9302 389.06L35.9102 388.82Z" fill="#263238"/>
<path d="M250 467.63C366.03 467.63 460.09 456.665 460.09 443.14C460.09 429.614 366.03 418.65 250 418.65C133.971 418.65 39.9102 429.614 39.9102 443.14C39.9102 456.665 133.971 467.63 250 467.63Z" fill="#EBEBEB"/>
<path d="M277.47 447.71C279.55 448.41 339.09 448.62 341.37 447.19C342.24 446.65 342.77 437.98 343.12 427.49C343.2 425.22 343.26 422.88 343.32 420.49L348.14 388.74L308.34 388.48L304.58 420.25L304.73 427.25C304.73 427.25 281.9 437.37 279.57 439.2C277.24 441.03 275.4 447 277.47 447.71Z" fill="#EB9481"/>
<path d="M277.47 447.71C279.55 448.41 339.09 448.62 341.37 447.19C342.42 446.53 343 433.87 343.32 420.5L304.58 420.26L304.73 427.26C304.73 427.26 281.9 437.38 279.57 439.21C277.24 441.04 275.4 447 277.47 447.71Z" fill="white"/>
<path d="M277.47 447.71C279.55 448.41 339.09 448.62 341.37 447.19C342.24 446.65 342.77 437.98 343.12 427.49L304.73 427.24C304.73 427.24 281.9 437.36 279.57 439.19C277.24 441.02 275.4 447 277.47 447.71Z" fill="#0E6431"/>
<path d="M278.34 445.33C288.34 445.12 328.6 445.21 338.48 445.76C338.56 445.76 338.56 445.82 338.48 445.83C328.59 446.25 288.31 445.83 278.33 445.49C278.12 445.48 278.13 445.33 278.34 445.33Z" fill="#263238"/>
<path d="M283.41 437.06C284.526 437.028 285.637 437.231 286.67 437.655C287.704 438.078 288.637 438.714 289.41 439.52C290.807 440.95 291.602 442.861 291.63 444.86C291.63 444.92 291.51 444.92 291.5 444.86C291.174 442.889 290.218 441.077 288.776 439.694C287.334 438.312 285.483 437.433 283.5 437.19C283.483 437.202 283.462 437.206 283.441 437.203C283.42 437.199 283.402 437.187 283.39 437.17C283.378 437.153 283.374 437.131 283.377 437.111C283.381 437.09 283.393 437.072 283.41 437.06Z" fill="#263238"/>
<path d="M300.86 428.22C304.86 428.22 309.48 429.61 311.95 432.88C312.05 433.01 311.87 433.14 311.75 433.08C308.249 431.238 304.561 429.773 300.75 428.71C300.685 428.695 300.629 428.656 300.593 428.599C300.558 428.543 300.546 428.475 300.56 428.41C300.575 428.345 300.615 428.288 300.671 428.253C300.727 428.217 300.795 428.205 300.86 428.22Z" fill="#263238"/>
<path d="M297.77 429.41C301.77 429.41 306.39 430.8 308.86 434.08C308.96 434.2 308.78 434.34 308.66 434.27C305.161 432.425 301.473 430.963 297.66 429.91C297.604 429.887 297.557 429.844 297.529 429.79C297.501 429.736 297.492 429.673 297.506 429.614C297.519 429.554 297.552 429.501 297.601 429.464C297.649 429.426 297.709 429.407 297.77 429.41Z" fill="#263238"/>
<path d="M294.68 430.61C298.68 430.56 303.3 431.99 305.78 435.27C305.87 435.39 305.69 435.53 305.57 435.47C302.073 433.617 298.385 432.152 294.57 431.1C294.505 431.086 294.449 431.046 294.413 430.989C294.377 430.933 294.366 430.865 294.38 430.8C294.395 430.735 294.435 430.679 294.491 430.643C294.547 430.607 294.615 430.596 294.68 430.61Z" fill="#263238"/>
<path d="M291.59 431.8C295.59 431.8 300.22 433.18 302.69 436.46C302.78 436.58 302.6 436.72 302.48 436.66C298.984 434.807 295.295 433.342 291.48 432.29C291.415 432.275 291.359 432.236 291.323 432.179C291.288 432.123 291.276 432.055 291.29 431.99C291.305 431.925 291.345 431.869 291.401 431.833C291.457 431.797 291.525 431.785 291.59 431.8Z" fill="#263238"/>
<path d="M336 436.27C340.49 436.27 340.45 443.27 336 443.27C331.55 443.27 331.48 436.24 336 436.27Z" fill="#263238"/>
<path d="M296.88 423.4C299.02 426.19 302.3 427.96 305.14 429.93C305.207 429.968 305.281 429.989 305.358 429.993C305.434 429.997 305.511 429.983 305.581 429.951C305.651 429.92 305.713 429.873 305.761 429.814C305.81 429.755 305.844 429.685 305.86 429.61C305.876 429.613 305.892 429.613 305.907 429.609C305.923 429.604 305.937 429.597 305.948 429.586C305.96 429.575 305.969 429.562 305.975 429.547C305.98 429.532 305.982 429.516 305.98 429.5C305.702 425.834 304.464 422.306 302.39 419.27C301.15 417.52 298.61 415.88 296.58 417.55C294.55 419.22 295.62 421.78 296.88 423.4ZM296.7 420.09C297.12 415.75 301.03 419.09 301.89 420.42C302.432 421.287 302.916 422.189 303.34 423.12C304.182 425.058 304.926 427.037 305.57 429.05C304.24 427.99 302.82 427.05 301.45 426.05C299.82 424.86 296.48 422.49 296.7 420.09Z" fill="#263238"/>
<path d="M320.18 427C319.88 424.39 316.9 423.82 314.8 424.21C311.203 424.964 307.866 426.647 305.12 429.09C305.106 429.099 305.094 429.112 305.085 429.127C305.077 429.141 305.073 429.158 305.073 429.175C305.073 429.192 305.077 429.209 305.085 429.224C305.094 429.239 305.106 429.251 305.12 429.26C305.078 429.325 305.052 429.398 305.044 429.475C305.036 429.552 305.047 429.629 305.075 429.701C305.104 429.772 305.149 429.836 305.207 429.886C305.266 429.937 305.335 429.972 305.41 429.99C308.83 430.53 312.41 431.54 315.9 430.99C317.94 430.71 320.47 429.47 320.18 427ZM310.77 429.75C309.08 429.53 307.42 429.22 305.77 429.06C307.66 428.11 309.5 427.06 311.48 426.33C312.431 425.952 313.407 425.638 314.4 425.39C315.94 425.04 321.08 425.33 318.4 428.75C316.83 430.63 312.78 430 310.77 429.75Z" fill="#263238"/>
<path d="M406.64 241.94C406.64 241.94 360.41 320.58 359.17 326.1C357.27 334.59 347.17 418.37 347.17 418.37L299.07 417.51C299.07 417.51 307.36 343.63 315.21 319.3C320.87 301.77 361.66 243.63 361.66 243.63L406.64 241.94Z" fill="#37474F"/>
<path d="M303.46 410.13C310.37 410.08 334.85 409.81 344.04 410.66C344.059 410.66 344.077 410.667 344.09 410.68C344.103 410.694 344.11 410.711 344.11 410.73C344.11 410.749 344.103 410.766 344.09 410.779C344.077 410.793 344.059 410.8 344.04 410.8C340.88 411.25 310.37 410.54 303.46 410.32C303.445 410.325 303.429 410.326 303.414 410.324C303.398 410.321 303.383 410.315 303.37 410.306C303.358 410.297 303.347 410.285 303.34 410.27C303.333 410.256 303.329 410.241 303.329 410.225C303.329 410.209 303.333 410.194 303.34 410.179C303.347 410.165 303.358 410.153 303.37 410.144C303.383 410.135 303.398 410.129 303.414 410.126C303.429 410.124 303.445 410.125 303.46 410.13Z" fill="#263238"/>
<path d="M398.75 249.16C395.75 253.91 392.52 258.56 389.42 263.27C386.32 267.98 383.24 272.7 380.19 277.45C374.103 286.93 368.157 296.497 362.35 306.15C359.535 310.593 357.122 315.278 355.14 320.15C353.335 325.047 351.979 330.098 351.09 335.24C350.14 340.41 349.52 345.62 348.94 350.83C348.313 356.377 347.693 361.923 347.08 367.47C345.813 378.803 344.547 390.157 343.28 401.53C343.12 402.92 342.97 404.32 342.83 405.71C342.83 405.92 343.17 405.96 343.2 405.71C344.61 394.43 345.79 383.12 347.08 371.82L349 355C349.59 349.77 350.16 344.54 351 339.33C351.751 334.206 352.884 329.145 354.39 324.19C356.039 319.056 358.256 314.122 361 309.48C366.57 299.87 372.47 290.42 378.37 281C384.27 271.58 390.32 262 396.55 252.67C397.31 251.52 398.09 250.37 398.89 249.24C399 249.15 398.81 249.07 398.75 249.16Z" fill="#263238"/>
<path d="M365.77 454.32C367.96 454.46 427.04 438.89 428.88 436.93C428.961 436.811 429.009 436.673 429.02 436.53C429.25 434.59 426.23 427.34 424.11 418.05C423.98 417.46 422.87 414.64 421.31 410.83C417.02 400.38 409.37 382.42 409.37 382.42L370.8 392.32L385 420.87L386.92 427.58C386.92 427.58 367.41 443.19 365.63 445.58C363.85 447.97 363.59 454.16 365.77 454.32Z" fill="#EB9481"/>
<path d="M365.77 454.32C367.96 454.46 427.04 438.89 428.88 436.93C428.961 436.811 429.009 436.673 429.02 436.53C429.25 434.59 426.23 427.34 424.11 418.05C423.98 417.46 422.87 414.64 421.31 410.83L385.01 420.83L386.93 427.54C386.93 427.54 367.42 443.15 365.64 445.54C363.86 447.93 363.59 454.16 365.77 454.32Z" fill="white"/>
<path d="M365.77 454.31C367.96 454.47 427.04 438.89 428.88 436.93C429.58 436.19 428.05 428.2 424.11 418.05L386.93 427.59C386.93 427.59 367.42 443.18 365.64 445.59C363.86 448 363.59 454.16 365.77 454.31Z" fill="#0E6431"/>
<path d="M366 451.79C375.6 449.05 414.58 438.89 424.28 436.9C424.36 436.9 424.37 436.9 424.28 436.97C414.83 439.89 375.77 449.74 366.03 451.97C365.84 452 365.8 451.85 366 451.79Z" fill="#263238"/>
<path d="M368.81 442.51C369.877 442.202 370.996 442.12 372.096 442.268C373.196 442.416 374.253 442.791 375.2 443.37C376.912 444.399 378.165 446.045 378.7 447.97C378.7 448.03 378.6 448.06 378.58 447.97C377.757 446.141 376.363 444.628 374.606 443.66C372.85 442.691 370.826 442.319 368.84 442.6C368.834 442.609 368.825 442.617 368.815 442.621C368.805 442.626 368.794 442.628 368.782 442.626C368.771 442.625 368.761 442.62 368.752 442.613C368.744 442.606 368.737 442.596 368.734 442.586C368.73 442.575 368.73 442.564 368.732 442.553C368.735 442.542 368.74 442.532 368.748 442.524C368.756 442.516 368.766 442.511 368.777 442.508C368.788 442.506 368.8 442.506 368.81 442.51Z" fill="#263238"/>
<path d="M383.43 429.52C387.28 428.46 392.12 428.66 395.34 431.2C395.47 431.3 395.34 431.48 395.2 431.45C391.36 430.548 387.434 430.062 383.49 430C383.435 429.993 383.385 429.968 383.346 429.928C383.307 429.889 383.282 429.838 383.275 429.783C383.268 429.728 383.28 429.673 383.308 429.625C383.336 429.578 383.379 429.541 383.43 429.52Z" fill="#263238"/>
<path d="M380.75 431.46C384.6 430.4 389.44 430.6 392.66 433.14C392.79 433.24 392.66 433.42 392.51 433.39C388.668 432.507 384.742 432.041 380.8 432C380.728 432.007 380.657 431.985 380.602 431.939C380.546 431.893 380.512 431.827 380.505 431.755C380.498 431.683 380.521 431.612 380.566 431.557C380.612 431.502 380.678 431.467 380.75 431.46Z" fill="#263238"/>
<path d="M378.06 433.4C381.92 432.34 386.75 432.54 389.98 435.08C390.1 435.18 389.98 435.35 389.83 435.33C385.99 434.43 382.064 433.948 378.12 433.89C378.061 433.888 378.004 433.864 377.96 433.824C377.916 433.784 377.888 433.73 377.881 433.671C377.874 433.612 377.888 433.552 377.921 433.502C377.954 433.453 378.003 433.417 378.06 433.4Z" fill="#263238"/>
<path d="M375.38 435.33C379.23 434.28 384.07 434.48 387.29 437.02C387.42 437.12 387.29 437.29 387.15 437.26C383.308 436.37 379.383 435.891 375.44 435.83C375.374 435.838 375.307 435.819 375.254 435.778C375.202 435.737 375.168 435.676 375.16 435.61C375.152 435.544 375.171 435.477 375.212 435.425C375.253 435.372 375.314 435.338 375.38 435.33Z" fill="#263238"/>
<path d="M419.44 428.37C423.78 427.25 425.52 434 421.17 435.11C416.82 436.22 415.09 429.48 419.44 428.37Z" fill="#263238"/>
<path d="M378.35 425.87C381.14 428.02 384.76 428.87 388 430.08C388.074 430.1 388.152 430.103 388.228 430.088C388.303 430.072 388.374 430.04 388.434 429.992C388.495 429.944 388.543 429.883 388.575 429.813C388.608 429.743 388.623 429.667 388.62 429.59C388.637 429.59 388.653 429.585 388.667 429.577C388.682 429.569 388.694 429.558 388.703 429.544C388.712 429.53 388.717 429.514 388.718 429.498C388.72 429.481 388.717 429.465 388.71 429.45C387.508 425.969 385.411 422.865 382.63 420.45C380.99 419.08 378.11 418.13 376.57 420.27C375.03 422.41 376.73 424.62 378.35 425.87ZM377.35 422.72C376.65 418.41 381.28 420.66 382.45 421.72C383.198 422.417 383.896 423.166 384.54 423.96C385.853 425.614 387.078 427.337 388.21 429.12C386.65 428.44 385.04 427.9 383.46 427.27C381.56 426.53 377.73 425.09 377.34 422.72H377.35Z" fill="#263238"/>
<path d="M401.8 423.42C400.85 420.97 397.8 421.18 395.89 422.1C392.599 423.738 389.799 426.215 387.77 429.28C387.759 429.293 387.752 429.308 387.749 429.325C387.746 429.341 387.747 429.358 387.752 429.374C387.757 429.39 387.765 429.404 387.777 429.416C387.789 429.427 387.804 429.436 387.82 429.44C387.798 429.513 387.794 429.591 387.807 429.666C387.82 429.741 387.851 429.812 387.897 429.873C387.942 429.934 388.002 429.984 388.07 430.018C388.138 430.052 388.214 430.07 388.29 430.07C391.74 429.72 395.46 429.78 398.69 428.39C400.58 427.58 402.71 425.73 401.8 423.42ZM393.4 428.48C391.72 428.69 390.03 428.82 388.4 429.09C389.94 427.646 391.552 426.281 393.23 425C394.053 424.395 394.915 423.843 395.81 423.35C397.21 422.61 402.26 421.59 400.5 425.58C399.49 427.79 395.42 428.23 393.4 428.48Z" fill="#263238"/>
<path d="M382.36 419L425.58 407.66C425.58 407.66 384.2 326.23 384.58 320.61C384.88 315.61 414.89 271.93 416.58 263.75C419.29 250.36 412.77 238.4 406.45 231L361.75 243.6C361.75 243.6 365.31 251.33 371.85 256.21C371.85 256.21 343.76 303.11 343.04 318.55C342.32 333.99 382.36 419 382.36 419Z" fill="#37474F"/>
<path d="M381.54 411C387.8 409.21 385.98 409.64 392.27 407.91C395.35 407.07 415.58 401.54 418.58 401.25C418.65 401.25 418.68 401.35 418.58 401.38C415.82 402.62 395.5 407.8 392.41 408.58C386.09 410.18 387.88 409.65 381.54 411.19C381.47 411.2 381.42 411 381.54 411Z" fill="#263238"/>
<path d="M364.92 254.44C369.203 256.029 373.342 257.983 377.29 260.28C377.322 260.296 377.346 260.324 377.358 260.357C377.369 260.391 377.366 260.428 377.35 260.46C377.334 260.492 377.306 260.516 377.273 260.527C377.239 260.538 377.202 260.536 377.17 260.52C373 258.7 368.74 256.96 364.68 254.92C364.625 254.884 364.584 254.828 364.567 254.764C364.549 254.7 364.556 254.632 364.586 254.573C364.615 254.513 364.666 254.467 364.728 254.442C364.789 254.418 364.858 254.417 364.92 254.44Z" fill="#263238"/>
<path d="M370.17 253.34C370.488 254.126 370.755 254.931 370.97 255.75C371.205 256.39 371.31 257.07 371.28 257.75C371.267 257.773 371.248 257.792 371.225 257.805C371.203 257.818 371.177 257.825 371.15 257.825C371.124 257.825 371.098 257.818 371.075 257.805C371.052 257.792 371.033 257.773 371.02 257.75C370.646 257.152 370.362 256.502 370.18 255.82C369.91 255.07 369.62 254.33 369.38 253.58C369.21 253.1 370 252.86 370.17 253.34Z" fill="#263238"/>
<path d="M370.17 249.29C369.99 248.6 369.81 247.92 369.62 247.23C369.43 246.54 369.17 245.83 369.03 245.11C369.03 245 368.83 245.05 368.86 245.11C369.03 245.8 369.11 246.52 369.23 247.22C369.35 247.92 369.49 248.62 369.63 249.31C369.894 250.62 370.228 251.915 370.63 253.19C369.926 253.139 369.243 252.93 368.63 252.58C368.034 252.087 367.607 251.419 367.41 250.67C367.13 249.89 366.88 249.1 366.59 248.33C366.23 247.486 365.943 246.613 365.73 245.72C365.73 245.6 365.53 245.65 365.55 245.72C365.895 247.605 366.428 249.451 367.14 251.23C367.45 251.93 367.68 252.65 368.37 252.99C369.129 253.311 369.946 253.472 370.77 253.46C370.86 253.46 371 253.46 370.98 253.33C370.77 252.05 370.51 250.64 370.17 249.29Z" fill="#263238"/>
<path d="M370.91 257.77C369.21 260.84 367.27 263.77 365.45 266.77C363.63 269.77 361.99 272.69 360.33 275.69C356.99 281.75 353.89 287.97 351.06 294.29C349.66 297.417 348.327 300.58 347.06 303.78C345.743 306.964 344.657 310.239 343.81 313.58C343.015 316.914 342.865 320.37 343.37 323.76C344.003 327.236 344.899 330.659 346.05 334C348.367 341.651 351.186 349.14 354.49 356.42C354.6 356.66 355 356.48 354.91 356.23C352.55 349.57 350.11 342.93 347.98 336.23C345.93 329.69 343.49 322.91 344.62 315.96C345.251 312.626 346.203 309.361 347.46 306.21C348.674 302.97 349.967 299.767 351.34 296.6C354.06 290.35 357.1 284.28 360.22 278.23C361.96 274.84 363.79 271.49 365.56 268.11C367.33 264.73 369.07 261.23 371.06 257.95C371.12 257.76 371 257.68 370.91 257.77Z" fill="#263238"/>
<path d="M403.46 251.21C402.65 251.08 401.46 251.36 397.97 251.12C397 251.034 396.038 250.877 395.09 250.65C394.129 250.5 393.216 250.13 392.42 249.57C391.153 248.371 390.119 246.947 389.37 245.37C388.435 243.745 387.719 242.003 387.24 240.19C387.24 240.08 387.05 240.13 387.07 240.24C387.26 241.24 387.36 242.24 387.63 243.3C387.887 244.252 388.222 245.182 388.63 246.08C389.273 247.857 390.348 249.445 391.76 250.7C393.34 251.89 395.55 252.11 397.46 252.25C398.57 252.33 402.92 252.25 403.46 251.59C403.62 251.48 403.61 251.24 403.46 251.21Z" fill="#263238"/>
<path d="M414.85 398.36C409.397 387.28 404.063 376.13 398.85 364.91C393.637 353.69 388.577 342.387 383.67 331C382.313 328.326 381.231 325.522 380.44 322.63C379.77 319.46 380.75 316.63 382.09 313.76C384.583 308.555 387.371 303.497 390.44 298.61C393.44 293.69 396.68 288.88 399.85 284.05C403.128 279.319 406.133 274.404 408.85 269.33C411.31 264.42 412.68 259.19 411.98 253.69C411.28 248.19 408.91 243.11 406.38 238.28C405.71 237.01 405.02 235.75 404.38 234.47C404.33 234.38 404.18 234.47 404.24 234.56C407.06 239.62 409.77 244.93 411.09 250.56C411.77 253.366 411.98 256.265 411.71 259.14C411.359 262.042 410.541 264.868 409.29 267.51C406.94 272.67 403.66 277.43 400.57 282.16C397.48 286.89 394.19 291.81 391.11 296.71C387.981 301.615 385.107 306.678 382.5 311.88C381.36 314.21 380.11 316.64 379.83 319.25C379.53 322.12 380.56 324.86 381.67 327.45C386.47 338.71 391.53 349.88 396.67 360.99C401.81 372.1 407.14 383.25 412.55 394.29L414.55 398.46C414.68 398.69 414.93 398.53 414.85 398.36Z" fill="#263238"/>
<path d="M360.76 147.6C361.76 143.03 366.84 132.69 376.87 134.71C391.19 137.6 393.26 165.19 400.39 173.79C413.3 189.37 413.72 204.79 403.14 207.26C391.28 210.02 379.74 197.26 380.14 169.76C380.41 152.54 375.56 144.91 372.14 145.42C368.72 145.93 366.83 150.28 366.83 150.28L360.76 147.6Z" fill="#263238"/>
<path d="M361.24 145.89C361.949 143.758 362.912 141.72 364.11 139.82C365.312 137.873 366.906 136.198 368.79 134.9C370.741 133.582 373.057 132.91 375.41 132.98C377.744 133.05 380.026 133.685 382.06 134.83C384.044 136.017 385.749 137.616 387.06 139.52C388.356 141.391 389.433 143.404 390.27 145.52C391.859 149.716 392.972 154.076 393.59 158.52C392.5 154.224 391.09 150.015 389.37 145.93C388.478 143.933 387.382 142.032 386.1 140.26C384.855 138.511 383.253 137.045 381.4 135.96C379.545 134.902 377.464 134.302 375.33 134.21C373.218 134.111 371.126 134.655 369.33 135.77C367.488 136.932 365.889 138.44 364.62 140.21C363.958 141.094 363.347 142.016 362.79 142.97C362.23 143.89 361.72 144.88 361.24 145.89Z" fill="#263238"/>
<path d="M380.09 160.27C380.24 163 380.09 165.74 380.03 168.47C379.97 171.2 379.86 173.92 379.85 176.64C379.84 179.36 379.93 182.07 380.21 184.76C380.438 187.438 380.927 190.087 381.67 192.67C382.373 195.236 383.558 197.646 385.16 199.77C386.841 201.838 388.872 203.594 391.16 204.96C393.451 206.35 396.038 207.18 398.71 207.38C400.047 207.483 401.392 207.413 402.71 207.17C403.388 207.043 404.056 206.869 404.71 206.65C405.362 206.457 405.981 206.171 406.55 205.8C405.435 206.612 404.166 207.187 402.82 207.49C401.479 207.84 400.097 208.011 398.71 208C397.311 207.974 395.921 207.776 394.57 207.41C393.223 207.031 391.925 206.498 390.7 205.82C389.473 205.148 388.314 204.357 387.24 203.46L386.45 202.78L385.69 202.07C385.174 201.584 384.693 201.063 384.25 200.51C382.531 198.28 381.255 195.74 380.49 193.03C379.105 187.677 378.572 182.139 378.91 176.62C378.99 173.88 379.2 171.15 379.44 168.43C379.68 165.71 380 163 380.09 160.27Z" fill="#263238"/>
<path d="M359.94 147.68C359.78 146.41 360.55 144.68 361.35 144.37C362.15 144.06 368.53 146.11 369.2 147.64C369.87 149.17 367.29 150.8 367.29 150.8L359.94 147.68Z" fill="#0E6431"/>
<path d="M367.58 192.72C363.65 198.33 335.23 221.54 319.73 222.4C312.73 222.78 285.35 219.8 279.25 217.29C271.76 214.21 286.57 195.66 291.25 196.45C297.11 197.45 317.89 199.64 322.03 199.75C328.67 199.92 349.03 188.75 362.74 185.84C369.83 184.35 370.62 188.4 367.58 192.72Z" fill="#EB9481"/>
<path d="M367.27 193.78C362.93 201.35 347.61 214.33 347.61 214.33L345 209.51L336.36 193.6C336.36 193.6 350.88 187.82 360.51 185.01C361.641 184.663 362.798 184.409 363.97 184.25C370.19 183.45 371 187.28 367.27 193.78Z" fill="#DBDBDB"/>
<path d="M367.27 193.78C362.93 201.35 347.61 214.33 347.61 214.33L345 209.51L343.22 206.23L336.35 193.61C336.35 193.61 350.88 187.81 360.51 185C361.643 184.663 362.799 184.412 363.97 184.25C364.093 184.241 364.217 184.241 364.34 184.25C370.22 183.61 370.94 187.41 367.27 193.78Z" fill="#DBDBDB"/>
<path d="M349.16 189.69C349.493 191.07 349.493 192.51 349.16 193.89C348.826 192.51 348.826 191.07 349.16 189.69ZM345.05 197.93C344.345 197.918 343.642 198.003 342.96 198.18C343.643 198.352 344.345 198.436 345.05 198.43C345.758 198.436 346.463 198.352 347.15 198.18C346.464 198.003 345.758 197.919 345.05 197.93ZM366.29 186.19C365.582 186.179 364.876 186.263 364.19 186.44C364.876 186.616 365.582 186.701 366.29 186.69C366.994 186.695 367.697 186.611 368.38 186.44C367.697 186.269 366.994 186.185 366.29 186.19ZM358.11 196.63C358.605 197.133 359.163 197.57 359.77 197.93C359.41 197.323 358.973 196.765 358.47 196.27C357.973 195.769 357.415 195.332 356.81 194.97C357.172 195.575 357.609 196.133 358.11 196.63ZM350.04 206.63C350.534 207.136 351.092 207.577 351.7 207.94C351.344 207.33 350.906 206.772 350.4 206.28C349.905 205.773 349.348 205.333 348.74 204.97C349.085 205.576 349.508 206.135 350 206.63H350.04Z" fill="white"/>
<path d="M350.28 210.78C348.83 207.85 342.43 196.05 340.88 193.59C340.77 193.42 340.64 193.44 340.72 193.59C343.555 199.486 346.706 205.224 350.16 210.78C350.2 210.9 350.32 210.86 350.28 210.78Z" fill="#263238"/>
<path d="M367.27 193.78C362.93 201.35 347.61 214.33 347.61 214.33L345 209.51L343.22 206.23C351.53 198.03 361.54 187.94 364.34 184.23C370.22 183.61 370.94 187.41 367.27 193.78Z" fill="#A6A6A6"/>
<path d="M353.1 228.65L355.37 253.65C358.428 253.509 361.476 253.202 364.5 252.73C372.477 251.534 380.379 249.888 388.17 247.8C395.9 245.8 404.96 243.04 415.32 239.36C415.32 239.36 391.89 197.1 375.72 185.44C375.35 185.17 374.99 184.92 374.62 184.69C374.55 184.63 374.48 184.6 374.41 184.55C367.06 179.9 360.41 183.55 356.73 188.73C355.8 190.03 346.8 210.49 347.25 217.35C347.66 223.38 353.1 228.65 353.1 228.65Z" fill="#DBDBDB"/>
<path d="M366.1 201.89C366.277 202.572 366.361 203.275 366.35 203.98C366.361 204.688 366.277 205.394 366.1 206.08C365.923 205.394 365.839 204.688 365.85 203.98C365.844 203.276 365.928 202.573 366.1 201.89ZM371.55 228.07C371.544 228.778 371.628 229.483 371.8 230.17C371.982 229.485 372.066 228.778 372.05 228.07C372.061 227.362 371.977 226.656 371.8 225.97C371.628 226.657 371.544 227.362 371.55 228.07ZM389 213.17C388.989 213.878 389.073 214.584 389.25 215.27C389.584 213.89 389.584 212.45 389.25 211.07C389.073 211.756 388.989 212.462 389 213.17ZM357 224.88C356.989 225.588 357.073 226.294 357.25 226.98C357.584 225.6 357.584 224.16 357.25 222.78C357.073 223.466 356.989 224.172 357 224.88ZM377.16 206.45C376.452 206.444 375.747 206.528 375.06 206.7C376.44 207.033 377.88 207.033 379.26 206.7C378.577 206.529 377.875 206.445 377.17 206.45H377.16ZM392.04 225.1C391.332 225.084 390.625 225.169 389.94 225.35C391.32 225.683 392.76 225.683 394.14 225.35C393.458 225.174 392.755 225.09 392.05 225.1H392.04ZM369.42 239.88C368.715 239.869 368.012 239.953 367.33 240.13C368.012 240.307 368.715 240.391 369.42 240.38C370.128 240.391 370.834 240.307 371.52 240.13C370.837 239.959 370.134 239.875 369.43 239.88H369.42ZM395.77 237C395.066 236.994 394.363 237.078 393.68 237.25C395.057 237.584 396.493 237.584 397.87 237.25C397.183 237.078 396.478 236.994 395.77 237ZM366.29 186.16C365.582 186.149 364.876 186.233 364.19 186.41C364.876 186.587 365.582 186.671 366.29 186.66C366.995 186.665 367.697 186.581 368.38 186.41C367.695 186.249 366.993 186.175 366.29 186.19V186.16ZM376.99 190.79C377.485 191.297 378.043 191.737 378.65 192.1C378.296 191.489 377.859 190.93 377.35 190.44C376.856 189.934 376.298 189.493 375.69 189.13C376.051 189.749 376.491 190.317 377 190.82L376.99 190.79ZM398.84 214.18C399.335 214.687 399.893 215.127 400.5 215.49C400.143 214.881 399.706 214.323 399.2 213.83C398.704 213.326 398.146 212.886 397.54 212.52C397.898 213.138 398.335 213.706 398.84 214.21V214.18ZM363.9 216.68C364.395 217.187 364.953 217.627 365.56 217.99C364.813 216.765 363.785 215.737 362.56 214.99C362.928 215.621 363.379 216.199 363.9 216.71V216.68ZM384 233.61C384.495 234.117 385.053 234.557 385.66 234.92C384.913 233.695 383.885 232.667 382.66 231.92C383.03 232.54 383.481 233.108 384 233.61ZM358.16 196.61C358.655 197.113 359.213 197.55 359.82 197.91C359.46 197.303 359.023 196.745 358.52 196.25C358.023 195.749 357.466 195.312 356.86 194.95C357.205 195.56 357.625 196.124 358.11 196.63L358.16 196.61ZM356.74 209.75C357.244 209.254 357.684 208.696 358.05 208.09C357.441 208.446 356.882 208.884 356.39 209.39C355.884 209.885 355.443 210.443 355.08 211.05C355.666 210.69 356.207 210.26 356.69 209.77L356.74 209.75ZM404.19 227.61C404.696 227.118 405.134 226.56 405.49 225.95C404.262 226.693 403.233 227.722 402.49 228.95C403.095 228.583 403.649 228.139 404.14 227.63L404.19 227.61ZM359.33 234.77C359.833 234.275 360.27 233.717 360.63 233.11C359.402 233.853 358.373 234.882 357.63 236.11C358.235 235.743 358.789 235.299 359.28 234.79L359.33 234.77ZM386.11 200.3C386.617 199.806 387.057 199.248 387.42 198.64C386.811 199.001 386.252 199.441 385.76 199.95C385.254 200.445 384.813 201.003 384.45 201.61C385.039 201.25 385.58 200.816 386.06 200.32L386.11 200.3ZM379.47 245.2C379.979 244.708 380.419 244.149 380.78 243.54C380.171 243.901 379.612 244.341 379.12 244.85C378.614 245.345 378.173 245.903 377.81 246.51C378.399 246.15 378.94 245.716 379.42 245.22L379.47 245.2ZM379.47 218.2C379.982 217.71 380.423 217.152 380.78 216.54C379.555 217.287 378.527 218.315 377.78 219.54C378.392 219.167 378.95 218.713 379.44 218.19L379.47 218.2Z" fill="white"/>
<path d="M369.82 184.12C369.68 185.12 365.7 191.62 361.36 191.79C359.94 191.84 359.31 184.14 359.31 184.14L359.13 183.58L356.66 175.77L365.5 169L366.79 168.09C366.79 168.09 367.32 170.28 367.96 173L368.05 173.39C368.05 173.54 368.13 173.68 368.16 173.83L368.46 175.06C368.53 175.38 368.6 175.69 368.66 176.06L368.87 177.06C369.348 179.389 369.665 181.748 369.82 184.12Z" fill="#EB9481"/>
<path d="M368 173C367.39 175.307 366.284 177.454 364.759 179.29C363.234 181.126 361.326 182.607 359.17 183.63L356.7 175.82L365.5 169L366.79 168.09C366.79 168.09 367.32 170.23 368 173Z" fill="#263238"/>
<path d="M345.7 164C345.63 178.38 354.24 180.05 357.34 180.06C360.15 180.06 369.74 179.75 371.34 165.45C372.94 151.15 366.23 146.58 359.8 146.21C353.37 145.84 345.77 149.59 345.7 164Z" fill="#EB9481"/>
<path d="M370.51 166.42C368.16 166.66 367.51 161.73 367.51 161.73C367.51 161.73 362.72 161.87 360.97 155.01C361.155 157.073 361.941 159.038 363.23 160.66C363.23 160.66 354.74 160 351 153C351 153 352.51 156.57 353.87 157.82C351.711 157.211 349.82 155.893 348.5 154.08C348.5 154.08 347.12 158.2 346.01 159.35C346.01 159.35 344.37 152.11 347.38 148.35C353.72 140.35 364.13 147.35 364.13 147.35C364.13 147.35 369.95 148.23 372.03 152.59C375.24 159.26 370.51 166.42 370.51 166.42Z" fill="#263238"/>
<path d="M369 166.51C369 166.51 371.76 161.78 373.89 162.73C376.02 163.68 374.19 170.36 371.89 171.44C371.606 171.6 371.292 171.701 370.968 171.738C370.644 171.774 370.315 171.744 370.003 171.651C369.69 171.558 369.4 171.402 369.148 171.194C368.897 170.986 368.69 170.73 368.54 170.44L369 166.51Z" fill="#EB9481"/>
<path d="M347.5 161.09C347.838 161.031 348.172 160.951 348.5 160.85C348.853 160.81 349.183 160.656 349.44 160.41C349.51 160.32 349.549 160.209 349.549 160.095C349.549 159.981 349.51 159.87 349.44 159.78C349.269 159.63 349.062 159.528 348.839 159.484C348.616 159.44 348.385 159.456 348.17 159.53C347.712 159.617 347.303 159.87 347.02 160.24C346.965 160.324 346.934 160.422 346.931 160.523C346.928 160.624 346.952 160.723 347.002 160.811C347.051 160.899 347.124 160.971 347.212 161.02C347.3 161.069 347.399 161.094 347.5 161.09Z" fill="#263238"/>
<path d="M356.88 162.21C356.544 162.177 356.21 162.123 355.88 162.05C355.515 162.043 355.162 161.913 354.88 161.68C354.808 161.591 354.769 161.48 354.769 161.365C354.769 161.251 354.808 161.139 354.88 161.05C355.037 160.887 355.235 160.768 355.453 160.709C355.672 160.649 355.902 160.649 356.12 160.71C356.584 160.762 357.013 160.978 357.33 161.32C357.395 161.403 357.435 161.502 357.445 161.606C357.456 161.71 357.436 161.815 357.389 161.909C357.342 162.002 357.269 162.08 357.179 162.134C357.088 162.187 356.985 162.214 356.88 162.21Z" fill="#263238"/>
<path d="M355 165.15C355 165.15 355.07 165.15 355.07 165.24C355.07 166.24 355.2 167.36 356.07 167.67V167.73C355 167.59 354.79 166.09 355 165.15Z" fill="#263238"/>
<path d="M355.83 164.11C357.41 163.96 357.59 167.11 356.12 167.28C354.65 167.45 354.5 164.23 355.83 164.11Z" fill="#263238"/>
<path d="M356.46 164.24C356.75 164.41 357.04 164.71 357.38 164.73C357.72 164.75 358.04 164.39 358.28 164.06H358.33C358.33 164.67 358.17 165.31 357.53 165.44C356.89 165.57 356.53 165.04 356.29 164.44C356.26 164.35 356.35 164.18 356.46 164.24Z" fill="#263238"/>
<path d="M349.49 165.2C349.49 165.2 349.41 165.25 349.42 165.29C349.51 166.29 349.42 167.42 348.58 167.8C349.67 167.63 349.73 166.12 349.49 165.2Z" fill="#263238"/>
<path d="M348.54 164.23C346.95 164.23 347.03 167.39 348.54 167.41C350.05 167.43 349.88 164.25 348.54 164.23Z" fill="#263238"/>
<path d="M347.89 164.45C347.64 164.63 347.4 164.94 347.1 164.97C346.8 165 346.48 164.66 346.25 164.33H346.2C346.2 164.94 346.42 165.57 347.01 165.67C347.6 165.77 347.92 165.23 348.01 164.62C348.08 164.55 348 164.38 347.89 164.45Z" fill="#263238"/>
<path d="M351.14 169.56C351.14 169.56 351 171 351 171.73C352.346 171.689 353.692 171.831 355 172.15C355.31 172.24 355.29 171.98 354.94 171.79C353.897 171.228 352.71 170.988 351.53 171.1C351.48 170.91 351.79 168.83 351.68 168.83C351.143 168.898 350.618 169.039 350.12 169.25C350.32 166.16 351.02 163.12 351.17 160.04C351.17 160.016 351.161 159.993 351.144 159.977C351.127 159.96 351.104 159.95 351.08 159.95C351.056 159.95 351.033 159.96 351.017 159.977C351 159.993 350.99 160.016 350.99 160.04C350.145 163.267 349.622 166.57 349.43 169.9C349.46 170.27 350.87 169.69 351.14 169.56Z" fill="#263238"/>
<path d="M352.63 171.73C353.132 172.389 353.834 172.866 354.63 173.09C355.84 173.21 355.92 172.09 354.57 171.58C353.922 171.452 353.251 171.504 352.63 171.73Z" fill="#263238"/>
<path d="M354.65 173.09C354.194 173.013 353.769 172.813 353.42 172.51C353.64 172.12 354.2 171.68 355.52 172.31C355.73 172.77 355.42 173.17 354.65 173.09Z" fill="#FF99BA"/>
<path d="M367.71 182.4C369.47 182.4 372.43 182.84 376.43 185.88C376.43 185.88 368.09 192.59 360.33 192.59C357.56 192.59 356.73 188.72 356.73 188.72C356.73 188.72 360.46 182.46 367.71 182.4Z" fill="#EB9481"/>
<path d="M499.46 470.32H466.79C443.05 470.32 428.53 453.91 425.92 424.12C424.63 409.43 423.84 391.65 423.01 372.83C420.45 315 416.94 235.83 394.43 235.83H368.56V229.83H394.43C422.67 229.83 425.89 302.4 429 372.58C429.83 391.34 430.62 409.06 431.9 423.58C433.53 442.16 440.9 464.31 466.79 464.31H499.46V470.32Z" fill="#0E6431"/>
<path opacity="0.2" d="M387.56 229.81L386.28 235.81H368.56V229.81H387.56Z" fill="black"/>
<path d="M319.8 196.9H309.34V269.99H319.8V196.9Z" fill="#0E6431"/>
<path d="M309.35 202.3H269.58V263.84H309.35V202.3Z" fill="#0E6431"/>
<path opacity="0.2" d="M309.34 202.31V263.85H299.46L295.03 202.31H309.34Z" fill="black"/>
<path d="M239.06 213.35H269.57V222.55H239.06C238.015 222.55 237.013 222.135 236.274 221.396C235.535 220.657 235.12 219.655 235.12 218.61V217.3C235.119 216.782 235.22 216.268 235.417 215.789C235.615 215.31 235.905 214.875 236.271 214.508C236.637 214.141 237.071 213.85 237.55 213.651C238.029 213.452 238.542 213.35 239.06 213.35Z" fill="#DBDBDB"/>
<path d="M269.57 213.35H258.86V222.54H269.57V213.35Z" fill="#A6A6A6"/>
<path d="M239.06 243.6H269.57V252.8H239.06C238.015 252.8 237.013 252.385 236.274 251.646C235.535 250.907 235.12 249.905 235.12 248.86V247.55C235.119 247.032 235.22 246.518 235.417 246.039C235.615 245.56 235.905 245.125 236.271 244.758C236.637 244.391 237.071 244.1 237.55 243.901C238.029 243.702 238.542 243.6 239.06 243.6Z" fill="#DBDBDB"/>
<path d="M269.57 243.6H258.86V252.79H269.57V243.6Z" fill="#A6A6A6"/>
<path d="M381.61 227.2H350.54V239.47H381.61V227.2Z" fill="#0E6431"/>
<path d="M381.61 227.21H350.54V239.48H381.61V227.21Z" fill="#0E6431"/>
<path opacity="0.2" d="M361.45 227.21L360.43 239.48H350.54V227.21H361.45Z" fill="black"/>
<path d="M319.8 204.62H344.39C346.021 204.62 347.586 205.268 348.739 206.421C349.892 207.575 350.54 209.139 350.54 210.77V255.38C350.54 257.011 349.892 258.575 348.739 259.729C347.586 260.882 346.021 261.53 344.39 261.53H319.8V204.62Z" fill="#0E6431"/>
<path opacity="0.2" d="M332.88 204.62L328.45 261.53H319.81V204.62H332.88Z" fill="black"/>
<g opacity="0.2">
<path d="M330.59 216.12H328.63V250.02H330.59V216.12Z" fill="black"/>
<path d="M336.15 216.12H334.19V250.02H336.15V216.12Z" fill="black"/>
<path d="M341.71 216.12H339.75V250.02H341.71V216.12Z" fill="black"/>
</g>
<path d="M378.73 192.87C382.17 202.52 377.24 237.87 371.41 245.36C362.75 256.46 345.64 266.67 339.1 269.86C336.24 271.25 323.43 250.77 326.22 248.86C332.22 244.75 351.33 234.94 352.95 232.99C354.57 231.04 363.29 212.31 366.78 201.78C371.47 187.64 377 188 378.73 192.87Z" fill="#EB9481"/>
<path d="M339.08 269.92C330.01 275.1 311.96 274.34 309.5 273.59L306.32 272.59C302.53 271.52 301.51 269.43 301.51 269.43C301.51 269.43 296.77 269.49 296.25 266.63C295.67 263.42 302.44 263.96 306.35 261.98C315.35 257.45 326.77 248.49 329.22 246.93L339.08 269.92Z" fill="#EB9481"/>
<path d="M319.08 263.84C316.476 265.204 313.779 266.383 311.01 267.37C307.92 268.266 304.768 268.934 301.58 269.37C301.565 269.376 301.551 269.386 301.542 269.399C301.533 269.413 301.528 269.429 301.528 269.445C301.528 269.461 301.533 269.477 301.542 269.491C301.551 269.504 301.565 269.514 301.58 269.52C307.837 269.35 313.927 267.468 319.19 264.08C319.32 264 319.21 263.78 319.08 263.84Z" fill="#263238"/>
<path d="M322.6 268.85C319.94 269.95 315.25 271.85 306.31 272.51C306.31 272.51 306.31 272.56 306.31 272.57C311.988 272.962 317.662 271.768 322.7 269.12C322.86 269 322.78 268.78 322.6 268.85Z" fill="#263238"/>
<path d="M316.8 255.85C317.73 254.85 317.18 254.31 314.72 254.75C312.26 255.19 302.91 259.05 301.84 255.68C300.77 252.31 314.05 247.05 318.2 246.62C321.949 246.426 325.708 246.537 329.44 246.95C327.06 248.49 321.42 252.77 316.8 255.85Z" fill="#EB9481"/>
<path d="M369.08 195.3C375.13 182.57 380.65 185.94 381.18 198.53C381.359 207.273 380.965 216.019 380 224.71L358.07 218.43C358.07 218.43 365.21 203.45 369.08 195.3Z" fill="#DBDBDB"/>
<path d="M374.54 187.88C375.765 188.627 376.793 189.655 377.54 190.88C376.315 190.133 375.287 189.105 374.54 187.88ZM365.85 204C365.839 204.708 365.923 205.414 366.1 206.1C366.277 205.414 366.361 204.708 366.35 204C366.361 203.295 366.277 202.592 366.1 201.91C365.928 202.593 365.844 203.295 365.85 204ZM377.17 206.47C376.462 206.464 375.757 206.548 375.07 206.72C376.45 207.053 377.89 207.053 379.27 206.72C378.584 206.541 377.879 206.451 377.17 206.45V206.47ZM363.9 216.71C364.395 217.216 364.953 217.657 365.56 218.02C364.813 216.795 363.785 215.767 362.56 215.02C362.93 215.64 363.381 216.208 363.9 216.71ZM379.44 218.19C379.952 217.7 380.393 217.141 380.75 216.53C379.525 217.277 378.497 218.305 377.75 219.53C378.372 219.162 378.94 218.711 379.44 218.19Z" fill="white"/>
<path d="M367 199.18C366.18 200.85 365.32 202.49 364.46 204.18C364.607 203.4 364.727 202.61 364.82 201.81H364.76C364.64 202.43 364.49 203.05 364.37 203.67C364.32 203.97 364.26 204.27 364.2 204.57C364.2 204.63 364.2 204.69 364.2 204.76C363.53 206.04 362.87 207.33 362.2 208.63C361.44 210.19 360.73 211.76 360.01 213.33C359.29 214.9 358.62 216.82 357.81 218.41C358.499 218.697 359.216 218.912 359.95 219.05C360.14 219.12 360.24 218.93 360.04 218.9C359.84 218.87 358.2 218.22 358.18 218.21C358.9 216.62 359.79 215.12 360.55 213.56C361.31 212 362.09 210.46 362.82 208.89C364.3 205.71 365.6 202.44 367.07 199.25C367.07 199.17 367 199.14 367 199.18Z" fill="#263238"/>
<path d="M382.09 206.76C381.89 207.41 381.66 208.06 381.49 208.76C381.43 209.04 381.36 209.31 381.29 209.59C381.37 207.31 381.443 205.037 381.51 202.77C381.2 206.49 380.88 210.2 380.64 213.92C380.292 217.483 380.128 221.061 380.15 224.64C379.492 224.484 378.824 224.381 378.15 224.33C378.877 224.639 379.639 224.857 380.42 224.98C380.97 221.38 381.01 217.4 381.19 213.78C381.24 212.78 381.27 211.78 381.31 210.71C381.43 210.08 381.61 209.46 381.78 208.84C381.95 208.22 382.08 207.5 382.22 206.84C382.17 206.74 382.1 206.72 382.09 206.76Z" fill="#263238"/>
<path d="M379.11 221.39C376.02 220.29 363.22 216.25 360.4 215.56C360.2 215.51 360.12 215.62 360.32 215.69C366.455 217.97 372.711 219.909 379.06 221.5C379.14 221.53 379.19 221.41 379.11 221.39Z" fill="#263238"/>
<path d="M271.6 218C274.6 218.92 273.99 214.82 273.99 214.82C273.99 214.82 276.34 220.5 279.83 220.25C283.32 220 282.24 215.07 282.18 214.71C282.3 215.01 284.6 220.17 288.08 219.56C291.56 218.95 289.89 214.13 289.77 213.83C289.98 214.07 292.77 217.26 295.33 216.19C299.69 214.35 292.73 205.99 293.24 202.19L299.37 202.37C299.572 202.351 299.772 202.321 299.97 202.28L300.2 199.15C298.241 198.355 296.349 197.405 294.54 196.31C292.23 195.01 290 193.83 288.34 193.79C287.595 193.75 286.858 193.952 286.236 194.364C285.615 194.777 285.143 195.378 284.89 196.08C284.89 196.08 283.09 193.24 280.33 193.64C278.92 193.85 278 196.3 278 196.3C277.557 195.673 276.948 195.181 276.242 194.879C275.536 194.577 274.76 194.477 274 194.59C272.06 194.99 271.44 197.39 271.44 197.39C271.44 197.39 268.98 195.94 267.13 197C263.42 199.06 265.12 216 271.6 218Z" fill="#EB9481"/>
<path d="M294 201.83L299.34 202.32C299.541 202.301 299.742 202.271 299.94 202.23C306.68 201.01 310.88 193.29 305.94 192.74C302.23 192.31 298.21 197.24 294.46 196.25L294 201.83Z" fill="#EB9481"/>
<path d="M271.31 197.7H271.22C270.37 203.615 271.34 209.649 274 215C274.09 215.17 274.4 215.09 274.34 214.89C272.5 209.338 271.479 203.547 271.31 197.7Z" fill="#263238"/>
<path d="M278 196.17C278 196.1 277.89 196.1 277.88 196.17C276.979 202.692 278.441 209.321 282 214.86C282.13 215.05 282.44 215.09 282.3 214.86C280.08 211 278 201.66 278 196.17Z" fill="#263238"/>
<path d="M290.17 214.07C286.72 208.63 285.35 202.63 284.84 196.27C284.84 196.19 284.72 196.21 284.7 196.27C284.11 199.45 284.86 203.47 285.7 206.55C286.434 209.422 287.906 212.052 289.97 214.18C290.07 214.27 290.25 214.19 290.17 214.07Z" fill="#263238"/>
<path d="M205.7 442C203.63 442.69 144.36 442.52 142.1 441.09C141.25 440.55 140.77 431.91 140.49 421.46C140.42 419.21 140.38 416.88 140.34 414.51C140.34 411.71 140.26 408.87 140.24 406.11C140.17 393.73 140.34 382.83 140.34 382.83H178.93V406.11V414.51L178.73 421.46C178.73 421.46 201.39 431.68 203.73 433.52C206.07 435.36 207.77 441.36 205.7 442Z" fill="#AD6359"/>
<path d="M205.7 442C203.63 442.69 144.36 442.52 142.1 441.09C141.25 440.55 140.77 431.91 140.49 421.46C140.42 419.21 140.38 416.88 140.34 414.51C140.34 411.71 140.26 408.87 140.24 406.11H178.91V414.51L178.71 421.46C178.71 421.46 201.37 431.68 203.71 433.52C206.05 435.36 207.77 441.36 205.7 442Z" fill="white"/>
<path d="M205.88 442.13C204.53 442.58 179.29 442.67 160.88 442.29C156.62 442.19 152.73 442.08 149.6 441.94C145.27 441.74 142.37 441.51 141.9 441.21C140.85 440.54 140.36 427.86 140.12 414.48H178.89L178.69 421.48C178.69 421.48 201.48 431.76 203.8 433.61C206.12 435.46 208 441.43 205.88 442.13Z" fill="#0E6431"/>
<path d="M205 439.75C195 439.47 154.7 439.31 144.8 439.8C144.72 439.8 144.72 439.85 144.8 439.86C154.7 440.35 195.01 440.18 205 439.91C205.24 439.9 205.25 439.75 205 439.75Z" fill="#263238"/>
<path d="M180.14 419.26C176.21 418.52 171.4 419.11 168.39 421.9C168.27 422.01 168.39 422.17 168.56 422.13C172.32 420.925 176.199 420.131 180.13 419.76C180.196 419.761 180.26 419.736 180.308 419.69C180.356 419.644 180.384 419.581 180.385 419.515C180.386 419.449 180.361 419.385 180.315 419.337C180.269 419.289 180.206 419.261 180.14 419.26Z" fill="#263238"/>
<path d="M183 421C179.07 420.25 174.26 420.84 171.24 423.64C171.13 423.74 171.24 423.91 171.41 423.87C175.176 422.658 179.062 421.857 183 421.48C183.052 421.465 183.098 421.433 183.13 421.39C183.162 421.347 183.18 421.294 183.18 421.24C183.18 421.186 183.162 421.133 183.13 421.09C183.098 421.047 183.052 421.015 183 421Z" fill="#263238"/>
<path d="M185.81 422.7C181.88 421.95 177.07 422.54 174.06 425.33C173.94 425.44 174.06 425.61 174.22 425.57C177.981 424.369 181.86 423.571 185.79 423.19C185.847 423.181 185.899 423.153 185.938 423.109C185.976 423.066 185.999 423.011 186.001 422.953C186.003 422.895 185.986 422.839 185.951 422.792C185.916 422.746 185.866 422.714 185.81 422.7Z" fill="#263238"/>
<path d="M188.64 424.42C184.71 423.67 179.9 424.26 176.89 427.05C176.77 427.16 176.89 427.33 177.06 427.29C180.816 426.083 184.692 425.285 188.62 424.91C188.677 424.901 188.729 424.872 188.768 424.829C188.806 424.786 188.829 424.731 188.831 424.673C188.833 424.615 188.816 424.558 188.781 424.512C188.746 424.466 188.696 424.433 188.64 424.42Z" fill="#263238"/>
<path d="M187.43 410.19C185.89 408.06 183.01 409.01 181.37 410.38C178.589 412.795 176.492 415.899 175.29 419.38C175.283 419.395 175.281 419.412 175.282 419.428C175.283 419.444 175.289 419.46 175.298 419.474C175.307 419.488 175.319 419.499 175.333 419.507C175.347 419.515 175.364 419.52 175.38 419.52C175.38 419.82 175.66 420.14 175.99 420.01C179.24 418.82 182.87 417.95 185.65 415.79C187.28 414.53 188.89 412.21 187.43 410.19ZM180.55 417.19C178.97 417.81 177.36 418.36 175.8 419.04C176.934 417.255 178.159 415.53 179.47 413.87C180.111 413.074 180.81 412.325 181.56 411.63C182.73 410.56 187.37 408.31 186.66 412.63C186.27 415 182.44 416.44 180.55 417.19Z" fill="#263238"/>
<path d="M165.3 418.31C168.53 419.7 172.3 419.64 175.7 419.99C175.777 419.989 175.852 419.971 175.92 419.937C175.989 419.903 176.049 419.854 176.095 419.793C176.141 419.732 176.173 419.661 176.188 419.586C176.203 419.511 176.2 419.434 176.18 419.36C176.192 419.35 176.203 419.338 176.21 419.324C176.216 419.311 176.22 419.295 176.22 419.28C176.22 419.264 176.216 419.249 176.21 419.235C176.203 419.221 176.192 419.209 176.18 419.2C174.162 416.135 171.376 413.653 168.1 412C166.16 411.08 163.1 410.88 162.18 413.33C161.26 415.78 163.41 417.5 165.3 418.31ZM163.53 415.51C161.77 411.51 166.82 412.51 168.22 413.26C169.118 413.758 169.983 414.312 170.81 414.92C172.493 416.198 174.109 417.563 175.65 419.01C173.97 418.74 172.28 418.61 170.59 418.4C168.57 418.15 164.5 417.71 163.53 415.51Z" fill="#263238"/>
<path d="M184.41 411.76L136.59 412.62C136.59 412.62 130.08 370.31 125.8 344C124.18 334.11 122.9 326.47 122.38 324.17C121.14 318.68 96.9102 231.54 96.9102 231.54L131.67 231.49H143.55C143.55 231.49 142.79 246.06 143.24 247.59C149.44 268.68 162.11 306.08 166.07 319.11C172.14 339.14 184.41 411.76 184.41 411.76Z" fill="#A6A6A6"/>
<path d="M180.06 404.43C173.2 404.38 148.86 404.11 139.72 404.96C139.707 404.965 139.696 404.974 139.688 404.986C139.68 404.997 139.676 405.011 139.676 405.025C139.676 405.039 139.68 405.052 139.688 405.064C139.696 405.076 139.707 405.085 139.72 405.09C142.87 405.54 173.2 404.84 180.07 404.62C180.085 404.624 180.101 404.624 180.116 404.621C180.132 404.618 180.146 404.611 180.159 404.601C180.171 404.591 180.181 404.578 180.187 404.564C180.193 404.549 180.196 404.534 180.195 404.518C180.195 404.502 180.19 404.487 180.182 404.473C180.174 404.459 180.163 404.448 180.15 404.439C180.137 404.431 180.122 404.425 180.106 404.424C180.09 404.422 180.075 404.424 180.06 404.43Z" fill="#263238"/>
<path d="M137.37 368.37C135.717 357.43 133.873 346.516 131.84 335.63C130.84 330.28 129.75 324.94 128.35 319.63C126.95 314.32 125.17 309.07 123.35 303.86C119.77 293.5 116.35 283.09 113.14 272.61C109.93 262.13 106.94 251.61 104.14 241C103.78 239.66 103.43 238.32 103.04 237C103.04 236.89 102.85 236.94 102.87 237C103.96 242.34 105.37 247.63 106.72 252.91C108.07 258.19 109.52 263.45 111.03 268.69C114.07 279.21 117.367 289.656 120.92 300.03C122.69 305.19 124.53 310.34 126.1 315.57C127.67 320.8 128.89 326.1 129.98 331.44C132.19 342.28 134.07 353.19 135.81 364.1C137.55 375.01 139.04 386.1 140.5 397.1C140.69 398.49 140.87 399.89 141.05 401.29C141.1 401.68 141.72 401.68 141.68 401.29C140.55 390.32 139 379.33 137.37 368.37Z" fill="#263238"/>
<path d="M131.67 231.47L125.8 344C124.18 334.11 122.9 326.47 122.38 324.17C121.14 318.68 96.9102 231.54 96.9102 231.54L131.67 231.47Z" fill="#263238"/>
<path d="M146.39 451.48C144.32 452.17 85.05 452 82.79 450.56C81.94 450.03 81.46 441.39 81.18 430.94C81.11 428.68 81.07 426.36 81.03 423.99C81.03 421.18 80.95 418.35 80.93 415.59C80.86 403.21 81.03 392.31 81.03 392.31H119.61V424L119.41 430.95C119.41 430.95 142.07 441.17 144.41 443.01C146.75 444.85 148.46 450.8 146.39 451.48Z" fill="#AD6359"/>
<path d="M146.39 451.48C144.32 452.17 85.0502 452 82.7902 450.56C81.9402 450.03 81.4602 441.39 81.1802 430.94C81.1102 428.68 81.0702 426.36 81.0302 423.99C81.0302 421.18 80.9502 418.35 80.9302 415.59H119.6V424L119.4 430.95C119.4 430.95 142.06 441.17 144.4 443.01C146.74 444.85 148.46 450.8 146.39 451.48Z" fill="white"/>
<path d="M146.57 451.57C145.22 452.01 119.97 452.1 101.57 451.72C97.3198 451.63 93.4298 451.51 90.2898 451.38C85.9698 451.18 83.0698 450.94 82.5898 450.64C81.5898 449.97 81.0498 437.3 80.8198 423.92H119.59L119.39 430.92C119.39 430.92 142.2 441.19 144.52 443C146.84 444.81 148.65 450.87 146.57 451.57Z" fill="#0E6431"/>
<path d="M145.72 449.18C135.72 448.91 95.41 448.74 85.52 449.23C85.44 449.23 85.44 449.29 85.52 449.3C95.41 449.78 135.73 449.62 145.72 449.35C145.93 449.34 145.93 449.19 145.72 449.18Z" fill="#263238"/>
<path d="M120.83 428.7C116.9 427.95 112.09 428.54 109.08 431.33C108.96 431.44 109.08 431.61 109.24 431.57C113.001 430.369 116.88 429.571 120.81 429.19C120.867 429.181 120.919 429.153 120.958 429.109C120.996 429.066 121.019 429.011 121.021 428.953C121.023 428.895 121.006 428.839 120.971 428.792C120.936 428.746 120.886 428.714 120.83 428.7Z" fill="#263238"/>
<path d="M123.66 430.42C119.73 429.67 114.92 430.26 111.91 433.05C111.79 433.16 111.91 433.33 112.08 433.29C115.84 432.082 119.719 431.284 123.65 430.91C123.707 430.899 123.758 430.87 123.796 430.826C123.833 430.782 123.854 430.727 123.855 430.669C123.856 430.611 123.838 430.555 123.802 430.509C123.766 430.464 123.716 430.432 123.66 430.42Z" fill="#263238"/>
<path d="M126.5 432.13C122.57 431.39 117.76 431.98 114.74 434.77C114.63 434.88 114.74 435.04 114.91 435C118.671 433.801 122.55 433.007 126.48 432.63C126.546 432.633 126.611 432.609 126.66 432.564C126.708 432.519 126.737 432.456 126.74 432.39C126.743 432.324 126.719 432.259 126.674 432.21C126.629 432.162 126.566 432.133 126.5 432.13Z" fill="#263238"/>
<path d="M129.33 433.85C125.4 433.11 120.59 433.7 117.58 436.49C117.46 436.6 117.58 436.76 117.74 436.72C121.502 435.522 125.38 434.727 129.31 434.35C129.376 434.353 129.441 434.329 129.49 434.284C129.538 434.239 129.567 434.176 129.57 434.11C129.573 434.044 129.549 433.979 129.504 433.93C129.459 433.881 129.396 433.853 129.33 433.85Z" fill="#263238"/>
<path d="M128.12 419.63C126.58 417.49 123.7 418.44 122.05 419.82C119.269 422.235 117.172 425.339 115.97 428.82C115.966 428.836 115.965 428.852 115.967 428.869C115.97 428.885 115.977 428.901 115.986 428.914C115.996 428.927 116.008 428.939 116.023 428.946C116.037 428.954 116.054 428.959 116.07 428.96C116.066 429.036 116.079 429.113 116.11 429.183C116.142 429.253 116.189 429.314 116.249 429.362C116.308 429.41 116.379 429.443 116.454 429.458C116.529 429.474 116.606 429.471 116.68 429.45C119.93 428.26 123.55 427.39 126.34 425.23C128 424 129.57 421.64 128.12 419.63ZM121.24 426.63C119.65 427.26 118.05 427.8 116.49 428.49C117.68 426.74 118.79 424.95 120.15 423.32C120.797 422.525 121.495 421.773 122.24 421.07C123.42 420.01 128.05 417.76 127.35 422.07C127 424.44 123.13 425.88 121.24 426.62V426.63Z" fill="#263238"/>
<path d="M106 427.75C109.24 429.14 113 429.08 116.41 429.43C116.488 429.43 116.564 429.413 116.633 429.378C116.703 429.343 116.763 429.292 116.809 429.23C116.855 429.168 116.885 429.095 116.897 429.019C116.91 428.942 116.904 428.864 116.88 428.79C116.896 428.785 116.91 428.776 116.922 428.765C116.933 428.753 116.943 428.74 116.948 428.724C116.954 428.709 116.956 428.692 116.955 428.676C116.953 428.66 116.948 428.644 116.94 428.63C114.902 425.569 112.1 423.094 108.81 421.45C106.87 420.53 103.81 420.33 102.89 422.78C101.97 425.23 104.09 426.94 106 427.75ZM104.24 424.94C102.48 420.94 107.53 421.94 108.93 422.7C109.83 423.191 110.695 423.742 111.52 424.35C113.201 425.635 114.817 427.003 116.36 428.45C114.67 428.17 112.98 428.05 111.29 427.84C109.26 427.59 105.19 427.15 104.22 424.94H104.24Z" fill="#263238"/>
<path d="M125 420.63H78.21C78.21 420.63 88.38 275.55 86.74 267.42C84.05 254.11 85.84 238.82 92.14 231.42H133.77C133.77 231.42 134.6 243.1 130.3 250.08C130.3 250.08 126.39 252.55 124.5 253.64L125 420.63Z" fill="#A6A6A6"/>
<path d="M120.64 413.06C114.16 412.9 116.03 412.85 109.54 412.76C106.37 412.71 85.5398 412.42 82.5398 412.89C82.4698 412.89 82.4698 413.01 82.5398 413.02C85.5398 413.53 106.36 413.46 109.54 413.44C116.02 413.44 114.16 413.35 120.64 413.25C120.66 413.243 120.677 413.23 120.69 413.213C120.702 413.196 120.709 413.176 120.709 413.155C120.709 413.134 120.702 413.113 120.69 413.096C120.677 413.079 120.66 413.066 120.64 413.06Z" fill="#263238"/>
<path d="M132.9 248.25C128.807 250.223 124.89 252.541 121.19 255.18C121.16 255.198 121.138 255.228 121.129 255.263C121.121 255.298 121.127 255.334 121.145 255.365C121.164 255.395 121.194 255.417 121.228 255.426C121.263 255.434 121.3 255.428 121.33 255.41C125.33 253.22 129.33 251.1 133.17 248.7C133.23 248.664 133.273 248.606 133.29 248.538C133.307 248.471 133.296 248.399 133.26 248.34C133.224 248.28 133.166 248.237 133.099 248.22C133.031 248.203 132.96 248.214 132.9 248.25Z" fill="#263238"/>
<path d="M127.59 247.65C127.353 248.458 127.166 249.279 127.03 250.11C126.86 250.762 126.816 251.441 126.9 252.11C126.9 252.24 127.11 252.23 127.17 252.11C127.484 251.48 127.699 250.805 127.81 250.11C128.01 249.34 128.23 248.58 128.4 247.81C128.52 247.32 127.75 247.15 127.59 247.65Z" fill="#263238"/>
<path d="M127.22 243.64C127.33 242.94 127.44 242.25 127.57 241.56C127.7 240.87 127.88 240.12 127.95 239.4C127.95 239.28 128.15 239.32 128.13 239.4C128.02 240.1 128.01 240.82 127.95 241.52C127.89 242.22 127.83 242.93 127.76 243.63C127.619 244.95 127.412 246.261 127.14 247.56C127.831 247.442 128.486 247.173 129.06 246.77C129.591 246.222 129.941 245.524 130.06 244.77C130.26 243.97 130.44 243.17 130.65 242.37C130.933 241.504 131.137 240.613 131.26 239.71C131.26 239.59 131.46 239.63 131.44 239.71C131.277 241.611 130.922 243.491 130.38 245.32C130.263 246.045 129.89 246.705 129.33 247.18C128.608 247.565 127.815 247.8 127 247.87C126.91 247.87 126.77 247.87 126.78 247.76C126.858 246.38 127.005 245.005 127.22 243.64Z" fill="#263238"/>
<path d="M93.5001 266.89C93.2001 263.83 92.7001 260.79 92.3701 257.73C91.7448 251.604 92.1162 245.417 93.4701 239.41C93.4701 239.3 93.3201 239.25 93.3001 239.41C92.116 244.685 91.5655 250.084 91.6601 255.49C91.9301 260.89 92.8901 266.21 92.9701 271.62C93.0501 277.03 92.6301 282.57 92.2801 288.03C91.9301 293.49 91.5701 299.03 91.2201 304.52C89.8001 326.61 88.4901 348.7 87.1401 370.8C86.7667 376.96 86.4067 383.126 86.0601 389.3C85.7001 395.57 85.2601 401.85 85.0601 408.14C85.0601 408.68 85.8401 408.64 85.8901 408.14C86.8301 397.05 87.3701 385.92 88.0801 374.83C88.7901 363.74 89.4201 352.83 90.0801 341.83C90.7401 330.83 91.4101 319.83 92.0801 308.83C92.4001 303.336 92.7334 297.843 93.0801 292.35C93.4001 286.88 93.8001 281.4 93.8801 275.92C93.9241 272.905 93.7972 269.89 93.5001 266.89Z" fill="#263238"/>
<path d="M108.24 239C108.231 238.985 108.219 238.974 108.204 238.965C108.189 238.957 108.172 238.953 108.155 238.953C108.138 238.953 108.121 238.957 108.107 238.965C108.092 238.974 108.079 238.985 108.07 239C107.822 239.725 107.69 240.484 107.68 241.25C107.551 242.07 107.36 242.879 107.11 243.67C106.651 245.261 105.79 246.708 104.61 247.87C101.99 250.32 98.4802 251.23 95.1002 252.05C95.0778 252.057 95.0582 252.071 95.0443 252.09C95.0304 252.109 95.0229 252.132 95.0229 252.155C95.0229 252.178 95.0304 252.201 95.0443 252.22C95.0582 252.239 95.0778 252.253 95.1002 252.26C97.1085 252.35 99.1147 252.038 101 251.34C102.682 250.826 104.234 249.956 105.55 248.79C106.807 247.594 107.666 246.04 108.01 244.34C108.189 243.451 108.283 242.547 108.29 241.64C108.29 241.21 108.29 240.78 108.29 240.34C108.362 239.894 108.345 239.439 108.24 239Z" fill="#263238"/>
<path d="M127.84 182.88C128.7 189.68 142.02 214.96 156.2 226.16C161.4 230.27 188.97 232.7 195.87 232.16C203.94 231.54 205.15 212.33 200.63 210.83C194.98 208.96 168.84 206.65 163.71 204.83C157.47 202.57 146.11 188.06 135.31 179.08C129.76 174.43 127.18 177.65 127.84 182.88Z" fill="#AD6359"/>
<path d="M195.87 232.17C198.42 232.1 210.09 230.76 213.26 229.66C216.43 228.56 225.26 224.74 224.7 222.23C224.14 219.72 221.42 220.63 221.42 220.63C221.42 220.63 224.91 218.42 224.08 215.95C223.25 213.48 219.08 215.04 219.08 215.04C219.08 215.04 222.5 212.51 221.49 210.1C220.48 207.69 216.59 209.96 216.59 209.96C216.59 209.96 219.83 207.79 218.17 206.15C216.17 204.15 210.65 208.86 207.07 209.81C206.25 210.03 190.25 213.02 190.25 213.02L195.87 232.17Z" fill="#AD6359"/>
<path d="M217 209.77C212.93 213.19 210.56 213.99 205.38 214.7C205.362 214.706 205.347 214.718 205.336 214.733C205.325 214.748 205.319 214.766 205.319 214.785C205.319 214.804 205.325 214.822 205.336 214.837C205.347 214.852 205.362 214.864 205.38 214.87C210.51 214.63 213.63 214.06 217.17 209.96C217.32 209.76 217.16 209.61 217 209.77Z" fill="#263238"/>
<path d="M219.43 214.76C214.9 218 212.34 218.83 207 220C206.93 220 206.95 220.15 207 220.14C212.36 219.45 215.46 218.81 219.57 215.03C219.74 214.84 219.64 214.61 219.43 214.76Z" fill="#263238"/>
<path d="M221.14 220.68C216.53 223.45 213.76 224.54 208.4 224.99C208.373 224.99 208.348 225.001 208.329 225.019C208.31 225.038 208.3 225.064 208.3 225.09C208.3 225.117 208.31 225.142 208.329 225.161C208.348 225.18 208.373 225.19 208.4 225.19C213.073 225.472 217.67 223.906 221.2 220.83C221.47 220.62 221.43 220.51 221.14 220.68Z" fill="#263238"/>
<path d="M186.55 210.92C189.243 209.18 192.061 207.639 194.98 206.31C197.8 205.31 209.7 205.31 209.83 207.89C210.01 211.21 203.14 212.54 199.69 212.76C199.69 212.76 200.12 220.43 195.39 222.46C190.66 224.49 186.55 210.92 186.55 210.92Z" fill="#AD6359"/>
<path d="M209.59 208.82C207.59 211.96 203.02 211.95 199.69 212.41C199.64 212.413 199.591 212.428 199.548 212.454C199.505 212.481 199.469 212.518 199.444 212.561C199.419 212.605 199.406 212.655 199.405 212.705C199.404 212.756 199.416 212.805 199.44 212.85C199.44 216.08 198.44 220.62 195.59 222.53C195.5 222.59 195.59 222.72 195.66 222.67C198.97 221.03 200.31 216.67 200.12 213.1C203.54 212.69 208.12 212.5 209.62 208.83C209.63 208.81 209.6 208.8 209.59 208.82Z" fill="#263238"/>
<path d="M172.05 231.8C172.05 231.8 157.93 227.94 156.21 226.59C154.333 225.115 152.544 223.532 150.85 221.85C138 209.22 130.24 192 128.14 186C125.92 179.61 127.96 173.49 133.91 177.61C134.389 177.949 134.849 178.313 135.29 178.7C142.29 184.8 161.01 203.35 163.29 204.3C165.57 205.25 176.56 206.69 176.56 206.69L172.05 231.8Z" fill="#455A64"/>
<path d="M150.85 221.85C138 209.22 130.24 192 128.14 186C125.92 179.61 127.96 173.49 133.91 177.61L150.85 221.85Z" fill="#263238"/>
<path d="M172 206.25C171.343 208.18 170.798 210.147 170.37 212.14C169.88 214.14 169.37 216.14 168.96 218.14C168.07 222.062 167.402 226.032 166.96 230.03C166.96 230.054 166.969 230.077 166.986 230.094C167.003 230.11 167.026 230.12 167.05 230.12C167.074 230.12 167.097 230.11 167.114 230.094C167.13 230.077 167.14 230.054 167.14 230.03C168.22 226.11 169.02 222.1 169.84 218.12C170.25 216.12 170.62 214.18 171.03 212.22C171.44 210.26 171.93 208.22 172.15 206.28C172.154 206.26 172.15 206.239 172.139 206.223C172.127 206.206 172.11 206.194 172.09 206.19C172.07 206.186 172.049 206.19 172.033 206.201C172.016 206.213 172.004 206.23 172 206.25Z" fill="#263238"/>
<path d="M141.54 196.73C141.87 198.21 142.13 199.73 142.33 201.29C142.325 201.23 142.325 201.17 142.33 201.11C142.41 200.26 142.47 199.39 142.62 198.55C142.62 198.55 142.7 198.5 142.7 198.55C142.751 199.415 142.718 200.282 142.6 201.14C142.55 201.55 142.5 201.96 142.44 202.36C142.51 203.05 142.57 203.74 142.61 204.42C142.69 205.72 142.94 211.27 142.91 212.22C142.91 212.42 142.68 212.44 142.63 212.22C142.44 211.22 141.94 205.53 141.8 204.22C141.538 201.722 141.411 199.212 141.42 196.7C141.44 196.67 141.52 196.68 141.54 196.73Z" fill="#263238"/>
<path d="M143.13 238.27C141.13 240.07 138.69 242.7 124.65 243.68C123.77 243.68 122.87 243.75 121.97 243.68C108.45 243.3 89.4801 232.68 88.3501 231.84C88.3501 231.84 102.92 192.42 122.19 177.29C124.94 175.12 130.84 176.19 134.53 178.42C135.85 179.22 140.21 186.51 141.09 193.15C141.97 199.79 145.12 236.47 143.13 238.27Z" fill="#455A64"/>
<path d="M132.18 188.3C128.78 188.58 123.91 182.7 122.31 178.3C122.2 178 123.08 175.13 123.98 171.59C124.52 169.44 125.07 167.04 125.41 164.81C125.48 164.35 126.91 165.43 126.91 165.43L129.69 166.57L138.89 170.35C137.661 173.017 136.764 175.824 136.22 178.71C136.191 179.023 136.191 179.337 136.22 179.65C136.224 179.7 136.224 179.75 136.22 179.8C136.19 181.57 135.46 188 132.18 188.3Z" fill="#AD6359"/>
<path d="M136.18 179.64C136.185 179.69 136.185 179.74 136.18 179.79C135.694 179.784 135.209 179.737 134.73 179.65C125.33 178 126 165.83 126 165.83L129.7 166.56L138.9 170.34C137.671 173.007 136.774 175.815 136.23 178.7C136.184 179.011 136.167 179.326 136.18 179.64Z" fill="#263238"/>
<path d="M124.46 150.16C122.67 155.1 124.58 169.72 127.98 173.16C132.91 178.16 141.36 178.99 145.65 172.97C149.82 167.15 146.99 148.13 143.16 144.97C137.51 140.34 127.1 142.87 124.46 150.16Z" fill="#AD6359"/>
<path d="M137.78 160.28C137.78 160.28 137.71 160.34 137.72 160.38C137.87 161.38 137.89 162.51 137.03 162.95C137.03 162.95 137.03 163.01 137.03 163C138.12 162.71 138.09 161.18 137.78 160.28Z" fill="#263238"/>
<path d="M136.77 159.36C135.17 159.44 135.45 162.63 136.93 162.56C138.41 162.49 138.11 159.29 136.77 159.36Z" fill="#263238"/>
<path d="M143.84 159.62C143.84 159.62 143.92 159.62 143.92 159.7C143.98 160.7 144.21 161.82 145.13 162.08C144 162.07 143.73 160.57 143.84 159.62Z" fill="#263238"/>
<path d="M144.64 158.51C146.22 158.26 146.64 161.44 145.15 161.68C143.66 161.92 143.31 158.73 144.64 158.51Z" fill="#263238"/>
<path d="M135.53 157C135.95 156.85 136.32 156.64 136.73 156.45C137.176 156.32 137.567 156.046 137.84 155.67C137.907 155.535 137.926 155.382 137.895 155.236C137.864 155.089 137.785 154.956 137.67 154.86C137.41 154.71 137.115 154.631 136.815 154.631C136.515 154.631 136.22 154.71 135.96 154.86C135.386 155.077 134.915 155.501 134.64 156.05C134.59 156.177 134.577 156.315 134.603 156.449C134.628 156.583 134.691 156.707 134.784 156.807C134.878 156.906 134.997 156.977 135.129 157.012C135.261 157.046 135.4 157.042 135.53 157Z" fill="#263238"/>
<path d="M145.64 157.43C145.203 157.382 144.769 157.308 144.34 157.21C143.872 157.195 143.422 157.026 143.06 156.73C142.971 156.612 142.922 156.468 142.922 156.32C142.922 156.172 142.971 156.028 143.06 155.91C143.266 155.691 143.527 155.533 143.816 155.452C144.105 155.371 144.411 155.37 144.7 155.45C145.312 155.513 145.879 155.802 146.29 156.26C146.376 156.373 146.428 156.508 146.438 156.65C146.448 156.792 146.417 156.934 146.348 157.058C146.279 157.182 146.175 157.283 146.049 157.35C145.924 157.416 145.781 157.444 145.64 157.43Z" fill="#263238"/>
<path d="M142.45 165C142.55 165.719 142.614 166.444 142.64 167.17C141.288 167.175 139.942 167.364 138.64 167.73C138.34 167.83 138.34 167.57 138.64 167.37C139.659 166.764 140.837 166.481 142.02 166.56C142.02 166.37 141.68 164.3 141.79 164.29C142.327 164.345 142.855 164.469 143.36 164.66C143.05 161.58 142.25 158.57 141.98 155.5C141.98 155.39 142.13 155.35 142.16 155.45C143.126 158.647 143.766 161.934 144.07 165.26C144.16 165.65 142.73 165.11 142.45 165Z" fill="#263238"/>
<path d="M125.52 162.35C128.04 162.17 127.72 156.01 127.72 156.01C127.72 156.01 131.56 155.27 133.37 150.01C133.37 150.01 138.37 153.01 142.5 152.25C148.98 150.99 148.7 142.54 146.25 140.85C142.77 138.45 136.67 142.08 136.67 142.08C136.67 142.08 127.35 139.61 124.67 145.93C123.467 146.029 122.346 146.58 121.533 147.473C120.72 148.365 120.276 149.533 120.29 150.74C120.05 155.29 123.65 162.48 125.52 162.35Z" fill="#263238"/>
<path d="M126.83 156.75C128.695 156.405 130.391 155.448 131.65 154.03C132.327 153.264 132.808 152.345 133.054 151.353C133.299 150.36 133.301 149.323 133.06 148.33C133.066 148.312 133.078 148.297 133.093 148.286C133.108 148.275 133.126 148.27 133.145 148.27C133.164 148.27 133.182 148.275 133.197 148.286C133.213 148.297 133.224 148.312 133.23 148.33C133.529 149.37 133.595 150.464 133.422 151.532C133.249 152.6 132.842 153.617 132.23 154.51C131.619 155.356 130.797 156.028 129.847 156.459C128.896 156.891 127.85 157.067 126.81 156.97C126.75 156.92 126.72 156.77 126.83 156.75Z" fill="#263238"/>
<path d="M136.42 142.36C137.223 141.034 138.482 140.046 139.96 139.58C141.758 139.07 143.681 139.241 145.36 140.06C146.028 140.41 146.592 140.93 146.996 141.567C147.4 142.204 147.629 142.936 147.66 143.69C147.68 145.438 147.098 147.141 146.01 148.51C146.01 148.51 145.92 148.51 145.95 148.51C146.818 147.217 147.262 145.686 147.22 144.13C147.193 143.389 146.957 142.672 146.54 142.059C146.122 141.447 145.54 140.965 144.86 140.67C142.18 139.52 138.28 139.76 136.56 142.49C136.51 142.55 136.36 142.45 136.42 142.36Z" fill="#263238"/>
<path d="M127 162.12C127 162.12 123.87 157.33 121.7 158.44C119.53 159.55 121.8 166.44 124.27 167.44C124.577 167.59 124.912 167.677 125.253 167.694C125.595 167.712 125.937 167.66 126.258 167.543C126.579 167.425 126.874 167.244 127.123 167.009C127.373 166.775 127.572 166.493 127.71 166.18L127 162.12Z" fill="#AD6359"/>
<path d="M122.35 160.39C122.35 160.39 122.35 160.44 122.35 160.46C123.141 160.885 123.833 161.471 124.383 162.181C124.932 162.891 125.326 163.708 125.54 164.58C125.444 164.4 125.311 164.244 125.148 164.121C124.986 163.998 124.798 163.913 124.599 163.87C124.401 163.827 124.195 163.828 123.996 163.873C123.798 163.918 123.611 164.005 123.45 164.13C123.45 164.13 123.45 164.23 123.45 164.22C123.761 164.131 124.091 164.142 124.396 164.249C124.7 164.357 124.964 164.556 125.15 164.82C125.46 165.264 125.722 165.74 125.93 166.24C126.01 166.4 126.29 166.32 126.24 166.14C126.38 163.87 124.74 160.69 122.35 160.39Z" fill="#263238"/>
<path d="M32.67 470.32H0V464.32H32.67C58.55 464.32 65.93 442.17 67.56 423.59C68.84 409.04 69.62 391.32 70.45 372.59C73.56 302.41 76.78 229.84 105.02 229.84H130.9V235.84H105C82.5 235.84 79 315.03 76.43 372.84C75.59 391.67 74.8 409.45 73.52 424.14C70.92 453.91 56.41 470.32 32.67 470.32Z" fill="#0E6431"/>
<path opacity="0.2" d="M130.9 229.81V235.81H110.26L108.98 229.81H130.9Z" fill="black"/>
<path d="M220.68 271.57H231.7V194.59H220.68V271.57Z" fill="#0E6431"/>
<path d="M220.68 198.24H178.8V267.12H220.68V198.24Z" fill="#0E6431"/>
<path opacity="0.2" d="M220.68 198.24V267.12H210.28L205.61 198.24H220.68Z" fill="black"/>
<path d="M115.36 238.94H146.43V226.67H115.36V238.94Z" fill="#0E6431"/>
<path d="M146.43 226.68H115.36V238.95H146.43V226.68Z" fill="#0E6431"/>
<path opacity="0.2" d="M135.52 238.94L136.54 226.68H146.43V238.94H135.52Z" fill="black"/>
<path d="M178.8 263.04H152.58C150.949 263.04 149.384 262.392 148.231 261.239C147.078 260.085 146.43 258.521 146.43 256.89V209.25C146.43 207.619 147.078 206.055 148.231 204.901C149.384 203.748 150.949 203.1 152.58 203.1H178.8V263.04Z" fill="#0E6431"/>
<path opacity="0.2" d="M165.02 263.04L169.69 203.11H178.8V263.04H165.02Z" fill="black"/>
<g opacity="0.2">
<path d="M167.43 250.92H169.5V215.22H167.43V250.92Z" fill="black"/>
<path d="M161.58 250.92H163.65V215.22H161.58V250.92Z" fill="black"/>
<path d="M155.72 250.92H157.79V215.22H155.72V250.92Z" fill="black"/>
</g>
<path d="M113.45 191.15C112.45 205.59 111.31 235 117.69 243.63C126.06 254.95 149.69 261.82 156.69 263.88C159.69 264.77 166.88 244.88 165.1 242.02C163.32 239.16 138.93 233.02 137.01 231.34C135.09 229.66 129.01 206.22 126.12 194.28C122.38 179.22 113.86 185.45 113.45 191.15Z" fill="#AD6359"/>
<path d="M183.12 249.66C186.97 250.58 192.81 248.6 193 251.55C193.17 254.17 189 255.14 189 255.14C189 255.14 194.06 255.57 193.44 258.44C192.82 261.31 188.02 261.44 188.02 261.44C188.02 261.44 192.66 262.07 191.83 264.89C191 267.71 186.55 268.1 186.55 268.1C186.55 268.1 187.72 268.97 186.24 270.7C184.13 273.18 177.09 272.89 173.46 271.87C169.83 270.85 157.26 264.41 155.35 263.38L161.72 239.98C161.72 239.98 169.03 238.82 172.81 238.68C176.59 238.54 189.16 241.54 188.63 244.68C188.1 247.82 179.25 245.58 176.96 245.5C174.67 245.42 174.27 245.93 175.27 246.77C175.92 247.36 181.41 249.25 183.12 249.66Z" fill="#AD6359"/>
<path d="M188.77 255.09C182.86 256.09 180.1 255.43 174.68 253.09C174.57 253.04 174.48 253.19 174.59 253.25C179.69 256 183.04 257.25 188.83 255.36C189.12 255.28 189.06 255.05 188.77 255.09Z" fill="#263238"/>
<path d="M188.25 261.34C182.02 261.79 179.03 261.16 173.17 259.14C173.09 259.14 173.03 259.25 173.11 259.29C178.7 261.74 182.06 262.93 188.23 261.66C188.51 261.61 188.54 261.32 188.25 261.34Z" fill="#263238"/>
<path d="M186.47 268.06C180.4 268.06 177.09 267.5 171.65 264.82C171.625 264.808 171.596 264.805 171.569 264.813C171.543 264.821 171.52 264.839 171.506 264.863C171.492 264.888 171.488 264.916 171.494 264.943C171.5 264.971 171.517 264.995 171.54 265.01C176.82 268.29 180.95 269.01 186.45 268.25C186.82 268.19 186.85 268.06 186.47 268.06Z" fill="#263238"/>
<path d="M138.24 259.19C138.24 259.19 119.17 249.61 116.24 242.27C112.64 233.11 111.17 206.4 112.57 192.7C113.97 179 123.51 180.7 126.57 192.81C129.57 204.63 136.34 228.24 137.04 229.35C137.93 230.78 148.81 233.47 148.81 233.47" fill="#455A64"/>
<path d="M136.33 226.29C136 225.16 135.42 222.61 135.09 221.51C134.42 219.31 133.75 217.1 133.09 214.9C132.43 212.7 131.72 210.49 130.99 208.3C130.86 207.93 130.74 207.55 130.62 207.18C130.68 206.94 130.41 204.04 130.43 203.33C130.43 203.22 130.25 203.21 130.26 203.33C130.287 204.04 130.263 204.752 130.19 205.46C130.19 205.59 130.19 205.73 130.19 205.86C129.73 204.42 129.27 202.99 128.8 201.59C128.8 201.49 128.6 201.53 128.63 201.59C129.53 204.59 129.97 206.48 130.63 208.91C131.29 211.34 131.97 213.6 132.63 215.91C133.29 218.22 134.06 220.57 134.79 222.91C135.201 224.296 135.681 225.662 136.23 227C136.65 227.9 136.67 227.48 136.33 226.29Z" fill="#263238"/>
<path d="M114.82 234.36C114.43 231.89 114.04 229.36 113.74 226.92C113.13 221.92 112.74 217 112.52 212C112.39 209.14 112.18 206.3 112.02 203.45C112.02 203.421 112.008 203.393 111.988 203.372C111.967 203.351 111.939 203.34 111.91 203.34C111.881 203.34 111.853 203.351 111.832 203.372C111.812 203.393 111.8 203.421 111.8 203.45C111.8 205.99 111.71 208.52 111.8 211.06C111.8 211.43 111.8 211.8 111.8 212.17L111.68 211.65C111.31 210.2 110.79 208.78 110.47 207.31C110.461 207.293 110.447 207.28 110.429 207.272C110.411 207.265 110.392 207.265 110.374 207.271C110.355 207.277 110.34 207.289 110.33 207.305C110.32 207.322 110.317 207.341 110.32 207.36C110.68 208.82 110.87 210.36 111.21 211.79C111.39 212.52 111.57 213.25 111.77 213.98L111.87 214.29C111.93 215.75 112 217.21 112.1 218.67C112.371 223.68 112.949 228.67 113.83 233.61C114.434 236.84 115.307 240.015 116.44 243.1C116.446 243.115 116.456 243.128 116.469 243.138C116.483 243.147 116.499 243.152 116.515 243.152C116.531 243.152 116.547 243.147 116.561 243.138C116.574 243.128 116.584 243.115 116.59 243.1C116 240.63 115.22 236.83 114.82 234.36Z" fill="#263238"/>
<path d="M145.27 233.46C144.226 235.255 143.291 237.112 142.47 239.02C141.59 240.9 140.7 242.78 139.87 244.68C138.187 248.421 136.715 252.254 135.46 256.16C135.458 256.182 135.463 256.204 135.474 256.223C135.485 256.241 135.503 256.256 135.523 256.264C135.544 256.272 135.566 256.273 135.587 256.267C135.609 256.26 135.627 256.248 135.64 256.23C137.5 252.53 139.09 248.68 140.71 244.87C141.51 242.99 142.28 241.09 143.07 239.21C143.86 237.33 144.76 235.44 145.37 233.5C145.39 233.44 145.3 233.41 145.27 233.46Z" fill="#263238"/>
<path d="M250.16 181.71C250.028 181.71 249.9 181.657 249.807 181.564C249.713 181.47 249.66 181.343 249.66 181.21V167.14C249.66 167.008 249.713 166.88 249.807 166.787C249.9 166.693 250.028 166.64 250.16 166.64C250.293 166.64 250.42 166.693 250.514 166.787C250.607 166.88 250.66 167.008 250.66 167.14V181.21C250.66 181.343 250.607 181.47 250.514 181.564C250.42 181.657 250.293 181.71 250.16 181.71Z" fill="#263238"/>
<path d="M224.7 188.45C224.611 188.45 224.524 188.427 224.447 188.383C224.37 188.339 224.305 188.276 224.26 188.2L217.26 176.01C217.219 175.953 217.19 175.889 217.176 175.82C217.161 175.752 217.161 175.681 217.175 175.613C217.19 175.544 217.218 175.48 217.259 175.423C217.3 175.366 217.353 175.319 217.413 175.284C217.474 175.248 217.541 175.226 217.61 175.219C217.68 175.211 217.75 175.218 217.817 175.24C217.884 175.261 217.945 175.296 217.997 175.343C218.05 175.389 218.091 175.446 218.12 175.51L225.12 187.7C225.154 187.756 225.176 187.819 225.185 187.883C225.195 187.948 225.191 188.015 225.174 188.078C225.157 188.141 225.128 188.201 225.088 188.253C225.048 188.305 224.997 188.348 224.94 188.38C224.868 188.424 224.785 188.449 224.7 188.45Z" fill="#263238"/>
<path d="M217.38 288.77C217.292 288.771 217.205 288.746 217.13 288.7C217.074 288.664 217.026 288.617 216.989 288.561C216.952 288.506 216.927 288.444 216.914 288.378C216.902 288.313 216.904 288.245 216.918 288.18C216.933 288.115 216.961 288.054 217 288L224 275.82C224.033 275.763 224.077 275.713 224.129 275.673C224.181 275.632 224.241 275.603 224.304 275.586C224.368 275.569 224.434 275.564 224.5 275.573C224.565 275.581 224.628 275.602 224.685 275.635C224.742 275.668 224.792 275.712 224.833 275.764C224.873 275.816 224.902 275.876 224.92 275.939C224.937 276.003 224.941 276.069 224.933 276.135C224.924 276.2 224.903 276.263 224.87 276.32L217.87 288.5C217.825 288.589 217.754 288.662 217.666 288.71C217.579 288.758 217.479 288.779 217.38 288.77Z" fill="#263238"/>
<path d="M249.84 297.55C249.708 297.55 249.581 297.497 249.487 297.404C249.393 297.31 249.34 297.183 249.34 297.05V283C249.34 282.867 249.393 282.74 249.487 282.646C249.581 282.553 249.708 282.5 249.84 282.5C249.972 282.503 250.098 282.556 250.191 282.649C250.284 282.743 250.338 282.868 250.34 283V297.07C250.335 297.199 250.28 297.321 250.187 297.411C250.094 297.5 249.97 297.55 249.84 297.55Z" fill="#263238"/>
<path d="M282.34 288.93C282.253 288.93 282.167 288.906 282.092 288.863C282.016 288.819 281.954 288.756 281.91 288.68L274.91 276.5C274.877 276.443 274.856 276.38 274.847 276.315C274.839 276.249 274.843 276.183 274.861 276.119C274.878 276.056 274.907 275.996 274.948 275.944C274.988 275.892 275.038 275.848 275.095 275.815C275.152 275.782 275.215 275.761 275.28 275.753C275.346 275.744 275.412 275.749 275.476 275.766C275.539 275.783 275.599 275.813 275.651 275.853C275.703 275.893 275.747 275.943 275.78 276L282.78 288.18C282.814 288.236 282.836 288.299 282.845 288.364C282.855 288.429 282.851 288.495 282.834 288.558C282.817 288.622 282.788 288.681 282.748 288.733C282.707 288.785 282.657 288.828 282.6 288.86C282.522 288.908 282.432 288.933 282.34 288.93Z" fill="#263238"/>
<path d="M275.58 188.61C275.492 188.611 275.405 188.587 275.33 188.54C275.273 188.508 275.223 188.465 275.183 188.413C275.143 188.361 275.113 188.302 275.096 188.238C275.08 188.175 275.076 188.109 275.085 188.044C275.094 187.979 275.116 187.916 275.15 187.86L282.15 175.67C282.223 175.57 282.33 175.501 282.452 175.475C282.573 175.45 282.699 175.47 282.806 175.532C282.913 175.594 282.993 175.694 283.031 175.812C283.069 175.93 283.061 176.057 283.01 176.17L276.01 188.36C275.965 188.435 275.902 188.496 275.827 188.54C275.752 188.584 275.667 188.608 275.58 188.61Z" fill="#263238"/>
</svg>
